<?xml version="1.0" encoding="utf-8"?>
<!-- Generator: Adobe Illustrator 27.3.1, SVG Export Plug-In . SVG Version: 6.00 Build 0)  -->
<svg version="1.1" id="Capa_1" xmlns="http://www.w3.org/2000/svg" xmlns:xlink="http://www.w3.org/1999/xlink" x="0px" y="0px"
	 viewBox="0 0 256 256" enable-background="new 0 0 256 256" xml:space="preserve">
<g id="_x32_Zhj3c_00000132079123311288154970000004212225816189717649_">
	<g>
		<path fill="#FFFFFF" d="M160.52,201.47c-3.59,0-6.69,0-9.82,0c-1.67-15.86,1.28-29.71,15.29-39.28c0.64-0.44,1.38-1.35,1.35-2.02
			c-0.17-4.4,0.03-8.92-0.96-13.15c-2.26-9.56-10.61-16.37-20.42-16.65c-11.59-0.33-23.2-0.34-34.79-0.07
			c-12.03,0.28-20.87,8.69-22.28,20.61c-0.1,0.88-0.08,1.77-0.2,2.64c-0.66,4.86,0.63,8.3,4.94,11.61
			c8.02,6.16,11.77,15.02,12.04,25.19c0.1,3.62,0.02,7.25,0.02,11.08c-3.38,0-6.56,0-10.09,0c0-3.1,0.01-6.11,0-9.13
			c-0.07-15.14-10.7-25.78-25.81-25.82c-11.01-0.03-22.02-0.03-33.03,0c-14.83,0.04-25.43,10.57-25.59,25.39
			c-0.03,3.12,0,6.24,0,9.56c-3.49,0-6.67,0-9.82,0c-3.17-22.98,7.73-39.26,26.56-44.07c2.45-0.63,5.04-0.94,7.57-0.96
			c11.89-0.1,23.79-0.07,35.68-0.02c2.34,0.01,4.69,0.36,7.05,0.55c0.4-3.69,0.45-7.45,1.26-11.03
			c3.52-15.54,16.37-25.66,32.91-25.92c10.51-0.17,21.04-0.2,31.55,0.01c19.67,0.38,33.41,14.48,33.65,34.26
			c0.01,0.87,0.08,1.73,0.1,2.12c14.02,0,27.85-0.01,41.68,0c20.05,0.02,35.12,14.57,35.78,34.58c0.11,3.42,0.02,6.84,0.02,10.48
			c-3.44,0-6.61,0-10.19,0c0-2.91,0.01-5.72,0-8.53c-0.05-16.02-10.41-26.39-26.36-26.4c-10.71-0.01-21.43-0.02-32.14,0
			c-15.31,0.03-25.89,10.64-25.94,25.99C160.51,195.4,160.52,198.33,160.52,201.47z"/>
		<path fill="#FFFFFF" d="M202.78,86.64c17.09,0,30.91,13.82,30.87,30.9c-0.03,17.04-13.98,30.87-31.03,30.76
			c-16.97-0.11-30.71-13.84-30.78-30.76C171.78,100.55,185.71,86.64,202.78,86.64z M202.86,96.79
			c-11.53-0.03-20.84,9.26-20.78,20.74c0.06,11.41,9.23,20.58,20.61,20.61c11.5,0.03,20.88-9.3,20.84-20.74
			C223.49,106.06,214.22,96.82,202.86,96.79z"/>
		<path fill="#FFFFFF" d="M53.41,148.3c-17.05,0.04-30.94-13.82-30.93-30.86c0.01-16.93,13.71-30.68,30.69-30.79
			c17.08-0.11,31,13.61,31.12,30.69C84.41,134.31,70.5,148.26,53.41,148.3z M53.49,138.14c11.39-0.05,20.55-9.25,20.57-20.66
			c0.02-11.51-9.27-20.74-20.83-20.7c-11.34,0.04-20.61,9.33-20.63,20.66C32.59,128.89,41.98,138.19,53.49,138.14z"/>
		<path fill="#FFFFFF" d="M98.75,83.92c-0.08-15.99,13.06-29.23,29.17-29.39c16.08-0.16,29.54,13.26,29.47,29.37
			c-0.07,16.07-13.26,29.23-29.31,29.25C112.07,113.18,98.83,99.97,98.75,83.92z M147.14,84.17c0.19-10.59-8.14-19.21-18.74-19.39
			c-10.61-0.18-19.2,8.11-19.4,18.73c-0.2,10.58,8.13,19.2,18.75,19.4C138.31,103.12,146.94,94.77,147.14,84.17z"/>
	</g>
</g>
</svg>
