<?xml version="1.0" encoding="UTF-8"?><svg id="Capa_1" xmlns="http://www.w3.org/2000/svg" viewBox="0 0 550 220"><path d="m78.21,217.74v-60.44h29.13c21.39,0,35.03,12.92,35.03,30.38s-13.08,30.06-35.03,30.06h-29.13Zm13.3-48.96v37.47h15.83c14.22,0,21.5-7.59,21.5-18.67s-7.86-18.79-21.5-18.79h-15.83Zm67.36,18.9c0-18.27,14.68-31.61,34.59-31.61s34.7,13.33,34.7,31.61-14.79,31.5-34.7,31.5-34.59-13.26-34.59-31.5m13.54,0c0,11.8,9.1,19.92,21.05,19.92s21.05-8.23,21.05-19.92-8.99-20.02-21.05-20.02-21.05,8.21-21.05,20.02m77.15,30.06v-60.44h39.12c13.43,0,21.17,5.54,21.17,16.32,0,3.8-1.25,9.3-3.76,11.87,5.35,3.79,8.09,6.9,8.09,13.06,0,11.71-9.33,19.19-23.55,19.19h-41.07Zm13.31-48.96v12.4h26.51c5.35,0,7.05-3.97,7.05-7.15,0-3.49-1.59-5.25-7.05-5.25h-26.51Zm0,23.9v13.56h29.24c5.46,0,8.41-2.87,8.41-7.79s-2.95-5.77-8.41-5.77h-29.24Zm74.64,25.06h56.44v-11.5h-43.13v-13.46h38.02v-11.49h-38.02v-12.51h40.62v-11.48h-53.93v60.44Zm77.58,0h53.36v-11.5h-40.05v-48.95h-13.31v60.44Z"/><path d="m481.86,212.33v-.04c0-4.06,3.3-7.46,7.47-7.46s7.43,3.36,7.43,7.41v.05c0,4.06-3.29,7.46-7.47,7.46s-7.43-3.36-7.43-7.42m14.28-.04v-.05c0-3.77-2.92-6.84-6.82-6.84s-6.85,3.11-6.85,6.88v.04c0,3.77,2.92,6.84,6.81,6.84s6.86-3.11,6.86-6.88m-9.69-3.98h3.37c.93,0,1.73.29,2.2.76.33.33.58.82.58,1.4v.04c0,1.22-.84,1.94-2.06,2.17l2.51,3.17h-1.15l-2.39-3.03h-2.18v3.03h-.88v-7.54Zm3.23,3.69c1.13,0,2-.5,2-1.44v-.04c0-.82-.72-1.35-1.9-1.35h-2.45v2.84h2.34Z"/><polygon points="1.37 59.9 19.4 59.9 39.39 89.98 59.39 59.9 77.42 59.9 77.42 131.04 60.8 131.04 60.8 84.59 39.39 114.98 38.96 114.98 17.77 84.9 17.77 131.04 1.37 131.04 1.37 59.9"/><path d="m121.75,59.39h15.43l32.59,71.65h-17.49l-6.95-15.95h-32.16l-6.95,15.95h-17.06l32.59-71.65Zm17.6,41.87l-10.1-23.07-10.1,23.07h20.21Z"/><polygon points="181.5 59.9 238.87 59.9 238.87 73.82 198.13 73.82 198.13 88.25 233.98 88.25 233.98 102.17 198.13 102.17 198.13 117.12 239.41 117.12 239.41 131.04 181.5 131.04 181.5 59.9"/><path d="m249.08,120.67l9.89-11.08c6.85,5.28,14.01,8.64,22.71,8.64,6.85,0,10.97-2.54,10.97-6.71v-.2c0-3.96-2.61-6-15.31-9.05-15.33-3.66-25.21-7.62-25.21-21.75v-.2c0-12.91,11.08-21.44,26.62-21.44,11.08,0,20.54,3.25,28.25,9.05l-8.69,11.79c-6.74-4.37-13.36-7.01-19.77-7.01s-9.78,2.74-9.78,6.2v.2c0,4.67,3.26,6.2,16.41,9.35,15.43,3.76,24.12,8.94,24.12,21.34v.21c0,14.13-11.52,22.05-27.92,22.05-11.52,0-23.14-3.76-32.27-11.38"/><polygon points="339.92 74.33 316.78 74.33 316.78 59.9 379.79 59.9 379.79 74.33 356.65 74.33 356.65 131.04 339.92 131.04 339.92 74.33"/><path d="m392.61,59.9h34.77c9.66,0,17.16,2.54,22.16,7.21,4.24,3.97,6.52,9.55,6.52,16.27v.2c0,11.48-6.63,18.7-16.3,22.06l18.58,25.41h-19.56l-16.3-22.77h-13.15v22.77h-16.73V59.9Zm33.68,34.55c8.15,0,12.82-4.06,12.82-10.06v-.2c0-6.71-5-10.16-13.15-10.16h-16.62v20.43h16.95Z"/><path d="m467.79,95.67v-.2c0-20.22,17.06-36.79,40.53-36.79s40.31,16.36,40.31,36.58v.2c0,20.22-17.06,36.79-40.52,36.79s-40.31-16.36-40.31-36.59m63.34,0v-.2c0-12.19-9.55-22.36-23.03-22.36s-22.81,9.96-22.81,22.15v.2c0,12.2,9.56,22.36,23.03,22.36s22.81-9.96,22.81-22.15"/><polygon points="156.5 6.04 156.5 27.02 150.72 27.02 150.72 6.04 142.71 6.04 142.71 .7 164.51 .7 164.51 6.04 156.5 6.04"/><polygon points="183.96 27.03 183.96 .71 203.79 .71 203.79 5.85 189.71 5.85 189.71 11.2 202.11 11.2 202.11 16.35 189.71 16.35 189.71 21.87 203.99 21.87 203.99 27.03 183.96 27.03"/><path d="m247.64,27.82l-2.89-2.59c-2.22,1.42-4.89,2.25-7.82,2.25-8.11,0-13.93-6.05-13.93-13.53v-.08c0-7.48,5.89-13.61,14.01-13.61s13.93,6.06,13.93,13.54v.08c0,2.74-.82,5.38-2.33,7.56l2.71,2.3-3.68,4.1Zm-2.74-13.95c0-4.51-3.3-8.27-7.96-8.27s-7.89,3.68-7.89,8.2v.08c0,4.51,3.31,8.27,7.97,8.27,1.27,0,2.44-.26,3.45-.71l-4.28-3.65,3.68-4.14,4.32,3.91c.48-1.09.71-2.29.71-3.6v-.08Z"/><path d="m282.09,27.44c-7.06,0-11.38-3.95-11.38-11.69V.71h5.79v14.89c0,4.28,2.14,6.5,5.67,6.5s5.67-2.14,5.67-6.32V.71h5.79v14.85c0,7.97-4.47,11.88-11.53,11.88"/><rect x="314.81" y=".7" width="5.79" height="26.32"/><polygon points="342.19 27.03 342.19 .71 347.98 .71 347.98 21.76 361.09 21.76 361.09 27.03 342.19 27.03"/><path d="m400.05,27.02l-2.41-5.9h-11.12l-2.4,5.9h-5.9l11.27-26.51h5.33l11.27,26.51h-6.05Zm-7.97-19.55l-3.5,8.54h6.99l-3.5-8.54Z"/></svg>