<?xml version="1.0" encoding="utf-8"?>
<!-- Generator: Adobe Illustrator 27.3.1, SVG Export Plug-In . SVG Version: 6.00 Build 0)  -->
<svg version="1.1" id="Capa_1" xmlns="http://www.w3.org/2000/svg" xmlns:xlink="http://www.w3.org/1999/xlink" x="0px" y="0px"
	 viewBox="0 0 550 220" enable-background="new 0 0 550 220" xml:space="preserve">
<g>
	<path fill="#FFFFFF" d="M79.36,217.11v-60.09h28.96c21.26,0,34.82,12.85,34.82,30.2c0,17.24-13,29.89-34.82,29.89H79.36z
		 M92.58,168.43v37.25h15.73c14.13,0,21.38-7.55,21.38-18.56c0-10.91-7.82-18.69-21.38-18.69H92.58z M159.55,187.22
		c0-18.17,14.59-31.42,34.39-31.42c19.79,0,34.5,13.26,34.5,31.42c0,18.14-14.71,31.32-34.5,31.32
		C174.14,218.54,159.55,205.36,159.55,187.22 M173.01,187.22c0,11.73,9.04,19.8,20.93,19.8c11.99,0,20.92-8.18,20.92-19.8
		c0-11.74-8.94-19.9-20.92-19.9C182.05,167.32,173.01,175.48,173.01,187.22 M249.71,217.11v-60.09h38.9
		c13.35,0,21.04,5.51,21.04,16.22c0,3.77-1.24,9.25-3.73,11.8c5.32,3.77,8.04,6.86,8.04,12.98c0,11.64-9.28,19.08-23.41,19.08
		H249.71z M262.94,168.43v12.33h26.35c5.32,0,7.01-3.95,7.01-7.11c0-3.47-1.58-5.21-7.01-5.21H262.94z M262.94,192.19v13.49h29.07
		c5.43,0,8.36-2.85,8.36-7.75c0-4.8-2.94-5.74-8.36-5.74H262.94z M337.14,217.11h56.11v-11.43h-42.88V192.3h37.8v-11.43h-37.8
		v-12.44h40.39v-11.41h-53.61V217.11z M414.27,217.11h53.05v-11.43H427.5v-48.66h-13.23V217.11z"/>
	<path fill="#FFFFFF" d="M480.65,211.74v-0.04c0-4.04,3.28-7.41,7.43-7.41c4.15,0,7.39,3.34,7.39,7.37v0.04
		c0,4.03-3.27,7.41-7.43,7.41C483.88,219.11,480.65,215.77,480.65,211.74 M494.85,211.7v-0.04c0-3.74-2.91-6.8-6.78-6.8
		c-3.89,0-6.81,3.09-6.81,6.84v0.04c0,3.74,2.9,6.8,6.77,6.8C491.92,218.53,494.85,215.44,494.85,211.7 M485.21,207.74h3.35
		c0.92,0,1.72,0.29,2.19,0.76c0.33,0.33,0.57,0.82,0.57,1.39v0.04c0,1.21-0.84,1.93-2.05,2.15l2.5,3.15h-1.14l-2.38-3.01h-0.04
		h-2.13v3.01h-0.88V207.74z M488.42,211.41c1.12,0,1.98-0.49,1.98-1.44v-0.04c0-0.82-0.71-1.35-1.88-1.35h-2.43v2.82H488.42z"/>
	<polygon fill="#FFFFFF" points="2.97,60.19 20.89,60.19 40.77,90.1 60.65,60.19 78.57,60.19 78.57,130.92 62.05,130.92 
		62.05,84.74 40.77,114.95 40.33,114.95 19.27,85.05 19.27,130.92 2.97,130.92 	"/>
	<path fill="#FFFFFF" d="M122.64,59.69h15.34l32.4,71.23h-17.39l-6.91-15.86h-31.97l-6.91,15.86H90.24L122.64,59.69z M140.14,101.31
		L130.1,78.38l-10.05,22.93H140.14z"/>
	<polygon fill="#FFFFFF" points="182.05,60.19 239.08,60.19 239.08,74.03 198.58,74.03 198.58,88.38 234.22,88.38 234.22,102.22 
		198.58,102.22 198.58,117.07 239.62,117.07 239.62,130.92 182.05,130.92 	"/>
	<path fill="#FFFFFF" d="M249.23,120.61l9.83-11.01c6.81,5.25,13.93,8.59,22.58,8.59c6.81,0,10.91-2.53,10.91-6.67v-0.2
		c0-3.94-2.59-5.96-15.23-8.99c-15.24-3.64-25.06-7.57-25.06-21.62v-0.2c0-12.83,11.02-21.32,26.46-21.32
		c11.02,0,20.42,3.24,28.08,8.99l-8.64,11.72c-6.7-4.34-13.29-6.97-19.66-6.97c-6.38,0-9.72,2.72-9.72,6.16v0.2
		c0,4.65,3.24,6.16,16.31,9.3c15.34,3.74,23.98,8.89,23.98,21.21V110c0,14.04-11.45,21.92-27.76,21.92
		C269.86,131.92,258.3,128.19,249.23,120.61"/>
	<polygon fill="#FFFFFF" points="339.54,74.54 316.54,74.54 316.54,60.19 379.18,60.19 379.18,74.54 356.18,74.54 356.18,130.92 
		339.54,130.92 	"/>
	<path fill="#FFFFFF" d="M391.93,60.19h34.57c9.61,0,17.06,2.53,22.03,7.17c4.21,3.94,6.48,9.5,6.48,16.17v0.2
		c0,11.42-6.59,18.59-16.2,21.93l18.47,25.26h-19.44l-16.2-22.64h-0.21h-12.86v22.64h-16.63V60.19z M425.41,94.54
		c8.1,0,12.74-4.04,12.74-10v-0.2c0-6.67-4.97-10.1-13.07-10.1h-16.53v20.31H425.41z"/>
	<path fill="#FFFFFF" d="M466.67,95.76v-0.2c0-20.11,16.96-36.57,40.29-36.57c23.33,0,40.07,16.27,40.07,36.37v0.2
		c0,20.1-16.96,36.58-40.29,36.58C483.42,132.13,466.67,115.86,466.67,95.76 M529.64,95.76v-0.2c0-12.12-9.5-22.23-22.89-22.23
		c-13.4,0-22.68,9.9-22.68,22.03v0.2c0,12.13,9.5,22.23,22.89,22.23C520.36,117.78,529.64,107.88,529.64,95.76"/>
	<polygon fill="#FFFFFF" points="157.19,6.65 157.19,27.51 151.44,27.51 151.44,6.65 143.49,6.65 143.49,1.34 165.15,1.34 
		165.15,6.65 	"/>
	<polygon fill="#FFFFFF" points="184.49,27.51 184.49,1.34 204.21,1.34 204.21,6.46 190.21,6.46 190.21,11.77 202.53,11.77 
		202.53,16.89 190.21,16.89 190.21,22.39 204.4,22.39 204.4,27.51 	"/>
	<path fill="#FFFFFF" d="M247.8,28.29l-2.87-2.58c-2.2,1.41-4.86,2.24-7.77,2.24c-8.06,0-13.85-6.02-13.85-13.45v-0.08
		c0-7.44,5.86-13.53,13.93-13.53c8.07,0,13.85,6.02,13.85,13.46v0.07c0,2.73-0.82,5.35-2.31,7.52l2.69,2.28L247.8,28.29z
		 M245.07,14.42c0-4.49-3.28-8.22-7.92-8.22c-4.63,0-7.84,3.66-7.84,8.15v0.07c0,4.49,3.29,8.23,7.92,8.23
		c1.27,0,2.43-0.26,3.43-0.71l-4.25-3.62l3.65-4.11l4.3,3.89c0.48-1.08,0.71-2.28,0.71-3.58V14.42z"/>
	<path fill="#FFFFFF" d="M282.05,27.92c-7.02,0-11.32-3.92-11.32-11.62V1.34h5.75v14.8c0,4.26,2.13,6.46,5.64,6.46
		c3.51,0,5.64-2.13,5.64-6.28V1.34h5.75v14.76C293.51,24.03,289.07,27.92,282.05,27.92"/>
	<rect x="314.58" y="1.34" fill="#FFFFFF" width="5.75" height="26.17"/>
	<polygon fill="#FFFFFF" points="341.8,27.51 341.8,1.34 347.55,1.34 347.55,22.28 360.58,22.28 360.58,27.51 	"/>
	<path fill="#FFFFFF" d="M399.32,27.51l-2.39-5.87h-11.05l-2.39,5.87h-5.87l11.21-26.36h5.3l11.21,26.36H399.32z M391.4,8.07
		l-3.48,8.49h6.95L391.4,8.07z"/>
</g>
</svg>
