<?xml version="1.0" encoding="UTF-8"?><svg id="Capa_1" xmlns="http://www.w3.org/2000/svg" viewBox="0 0 256 256"><path d="m194.64,111.54c0-16.09-13.05-29.14-29.14-29.14h-74.99c-16.09,0-29.14,13.05-29.14,29.14v32.91c0,16.09,13.05,29.14,29.14,29.14h74.99c16.09,0,29.14-13.05,29.14-29.14v-32.91Zm-41.24,17.32l-33.54,16.53c-1.31.71-5.89-.24-5.89-1.73v-33.93c0-1.51,4.61-2.46,5.92-1.71l32.05,17.4c1.34.76,2.81,2.7,1.46,3.44Z"/><path d="m128,3.25C59.21,3.25,3.25,59.21,3.25,128s55.96,124.75,124.75,124.75,124.75-55.96,124.75-124.75S196.79,3.25,128,3.25Zm0,233.5c-59.97,0-108.75-48.79-108.75-108.75S68.03,19.25,128,19.25s108.75,48.79,108.75,108.75-48.79,108.75-108.75,108.75Z"/></svg>