<?xml version="1.0" encoding="UTF-8"?>
<svg id="Capa_1" data-name="Capa 1" xmlns="http://www.w3.org/2000/svg" xmlns:xlink="http://www.w3.org/1999/xlink" viewBox="0 0 730 380">
  <defs>
    <style>
      .cls-1 {
        clip-path: url(#clippath);
      }

      .cls-2 {
        fill: none;
      }

      .cls-2, .cls-3 {
        stroke-width: 0px;
      }

      .cls-3 {
        fill: #fff;
      }
    </style>
    <clipPath id="clippath">
      <rect class="cls-2" x="2.25" y="1.5" width="725.5" height="377"/>
    </clipPath>
  </defs>
  <g class="cls-1">
    <path class="cls-3" d="m235.15,2.28c-.69.15-1.41.28-2.17.37-.74.1-1.8.18-3.21.23-1.4.07-3.23.1-5.5.12-2.27.03-5.28.03-9.01.03s-6.69,0-8.98-.03c-2.25-.02-4.08-.05-5.49-.12-1.38-.05-2.48-.13-3.23-.23-.76-.08-1.45-.22-2.04-.37.12.77.2,1.71.25,2.78.08,1.07.1,2.05.1,2.93,0,.77-.03,1.65-.03,2.6-.09.98-.12,1.84-.16,2.57l.65.05c.4-.94.83-1.81,1.28-2.62.42-.79,1.04-1.5,1.78-2.08.74-.59,1.73-1.06,2.91-1.41,1.21-.36,2.74-.54,4.57-.54.96,0,1.71.06,2.37.12.61.09,1.13.34,1.51.78.38.44.69,1.09.88,2,.15.91.24,2.17.24,3.77v25.51c0,1.41-.05,2.64-.14,3.68-.13,1.05-.4,1.9-.82,2.62-.42.71-.98,1.26-1.77,1.66-.75.42-1.81.71-3.14.86v.82c1.45-.03,2.99-.06,4.61-.09,1.63-.01,3.19-.03,4.72-.03,1.45,0,3.05.02,4.72.03,1.73.02,3.28.06,4.79.09v-.82c-1.38-.15-2.47-.42-3.26-.83-.77-.38-1.38-.94-1.8-1.65-.46-.71-.73-1.58-.84-2.62-.11-1.05-.18-2.3-.18-3.73V13.22c0-1.57.1-2.79.26-3.68.17-.87.41-1.55.81-2,.37-.45.88-.72,1.53-.82.64-.1,1.44-.16,2.43-.16,1.83,0,3.37.18,4.57.54,1.18.36,2.17.82,2.91,1.41.74.58,1.34,1.29,1.79,2.08.46.81.87,1.68,1.28,2.62l.65-.05c-.05-.74-.09-1.59-.12-2.57-.04-.96-.06-1.84-.06-2.6,0-.87.03-1.85.1-2.93.05-1.07.15-2.02.23-2.78"/>
    <path class="cls-3" d="m276.76,41.13c-.69.7-1.49,1.33-2.46,1.83-.97.5-2.18.89-3.61,1.14-1.46.26-3.33.38-5.54.38s-3.97-.06-5.22-.18c-1.2-.11-2.17-.4-2.73-.87-.59-.47-.93-1.17-1.05-2.08-.07-.93-.15-2.22-.15-3.87v-11.13h6.13c1.41,0,2.66.04,3.7.08,1.06.07,1.96.21,2.71.44.72.24,1.3.59,1.66,1.07.38.46.65,1.12.77,1.95h.83c-.04-1.45-.07-2.59-.07-3.42v-4.39c0-.92.03-2.13.07-3.63h-.83c-.06.91-.31,1.62-.72,2.12-.39.52-.92.89-1.65,1.13-.69.23-1.59.37-2.65.4-1.11.06-2.38.07-3.82.07h-6.13v-8.96c0-1.57.12-2.79.32-3.68.18-.88.61-1.55,1.25-2.01.67-.45,1.56-.71,2.79-.82,1.18-.09,2.77-.15,4.79-.15,1.82,0,3.34.19,4.48.54,1.18.36,2.1.83,2.83,1.42.68.58,1.26,1.29,1.67,2.08.39.81.79,1.68,1.18,2.62l.66-.05c-.02-.74-.07-1.59-.12-2.57-.02-.96-.05-1.84-.05-2.6,0-.88.03-1.82.1-2.85.05-1.01.13-1.92.25-2.7-.7.12-1.53.22-2.49.3-.96.07-2.13.13-3.46.17-1.4.05-2.96.07-4.76.09-1.82.03-3.86.03-6.25.03h-7.95c-1.45,0-2.89,0-4.27-.03-1.39-.02-2.65-.02-3.73-.02v.94c1.33.15,2.37.44,3.13.83.79.38,1.38.92,1.78,1.61.43.68.69,1.55.81,2.59.12,1.05.16,2.27.16,3.68v26.15c0,1.41-.04,2.64-.16,3.68-.11,1.04-.38,1.92-.81,2.62-.4.7-.99,1.26-1.78,1.68-.76.4-1.8.69-3.13.86v.82c1.19-.06,2.58-.07,4.02-.09,1.42-.03,2.92-.04,4.43-.07,1.53-.01,3.04-.03,4.52-.03h3.98c3.9,0,7.13.03,9.66.1,2.52.05,4.64.24,6.29.56.13-.71.27-1.48.5-2.34.22-.83.43-1.69.72-2.58.26-.88.52-1.76.86-2.59.36-.84.69-1.63,1.11-2.39l-.61-.36c-.65.94-1.32,1.76-1.98,2.47"/>
    <path class="cls-3" d="m355.35,63.33c-2.85,0-5.68-.42-8.51-1.26-2.83-.84-5.56-2.02-8.23-3.53-2.69-1.51-5.23-3.31-7.69-5.4-2.45-2.08-4.77-4.35-6.89-6.82,1.82-1.06,3.46-2.32,4.94-3.79,1.48-1.45,2.7-3.06,3.73-4.83,1.02-1.76,1.81-3.66,2.4-5.71.55-2.04.84-4.18.84-6.42,0-3.38-.62-6.52-1.88-9.45-1.28-2.93-3.01-5.48-5.24-7.67-2.25-2.17-4.88-3.88-7.92-5.13-3.04-1.22-6.37-1.84-9.93-1.84s-6.89.62-9.92,1.84c-3.04,1.25-5.67,2.96-7.87,5.13-2.24,2.18-3.97,4.74-5.25,7.67-1.23,2.93-1.87,6.07-1.87,9.45s.64,6.54,1.87,9.46c1.28,2.92,3,5.45,5.25,7.64,2.21,2.19,4.84,3.9,7.87,5.17,3.03,1.24,6.36,1.88,9.92,1.88,1.09,0,2.17-.06,3.2-.2,1.05-.15,2.08-.34,3.1-.57,1.7,1.65,3.73,3.51,6.14,5.6,2.39,2.09,5.06,4.04,8,5.84,2.97,1.79,6.14,3.32,9.53,4.56,3.42,1.23,7,1.85,10.72,1.85,1.14,0,2.44-.09,3.82-.28,1.44-.17,2.82-.43,4.18-.79,1.38-.36,2.69-.82,3.91-1.38,1.2-.57,2.19-1.26,2.98-2.03v-1.6c-1.59,1.1-3.4,1.82-5.36,2.12-1.98.31-3.94.47-5.84.47m-32.16-23.18c-1.6,1.8-3.43,3.2-5.53,4.18-2.1,1.02-4.3,1.52-6.63,1.52-2.46,0-4.77-.54-6.89-1.59-2.13-1.06-3.97-2.5-5.54-4.34-1.59-1.82-2.8-3.97-3.66-6.44-.91-2.47-1.36-5.12-1.36-7.95s.45-5.47,1.36-7.93c.86-2.45,2.06-4.59,3.66-6.4,1.57-1.83,3.4-3.28,5.54-4.34,2.12-1.05,4.43-1.59,6.89-1.59s4.76.54,6.86,1.59c2.08,1.06,3.95,2.51,5.51,4.34,1.56,1.82,2.79,3.95,3.68,6.4.85,2.46,1.31,5.11,1.31,7.93,0,2.98-.46,5.72-1.41,8.22-.94,2.49-2.21,4.62-3.8,6.4"/>
    <path class="cls-3" d="m382.47,3.09c-1.5,0-2.91-.01-4.27-.03-1.33,0-2.75-.03-4.22-.03v.94c.83.16,1.66.34,2.41.53.74.21,1.39.53,1.92,1,.56.47.99,1.16,1.29,2.07.31.91.43,2.14.43,3.72v16.37c0,2.59-.08,4.98-.27,7.16-.21,2.17-.73,4.07-1.57,5.68-.87,1.62-2.14,2.86-3.84,3.77-1.71.91-4.08,1.36-7.09,1.36-2.47,0-4.51-.35-6.1-1.06-1.59-.72-2.85-1.73-3.76-3.04-.94-1.31-1.57-2.89-1.87-4.74-.35-1.85-.52-3.94-.52-6.24V11.28c0-1.62.17-2.87.44-3.76.28-.91.7-1.6,1.23-2.07.54-.47,1.18-.79,1.92-.97.75-.17,1.6-.35,2.47-.51v-.94c-1.48,0-3.02.02-4.65.03-1.58.02-3.16.03-4.64.03s-3.13-.01-4.84-.03c-1.78,0-3.38-.03-4.88-.03v.94c.84.16,1.65.34,2.41.53.75.21,1.41.53,1.94,1,.56.47.98,1.16,1.28,2.07.28.91.44,2.14.44,3.72v22.2c0,2.58.45,4.89,1.33,6.88.91,2.01,2.17,3.69,3.73,5.07,1.57,1.37,3.43,2.42,5.6,3.12,2.17.71,4.49,1.06,7.01,1.06,3.18,0,5.89-.26,8.04-.77,2.17-.5,3.97-1.26,5.4-2.27,1.42-.99,2.5-2.22,3.24-3.69.79-1.45,1.32-3.12,1.68-5.03.37-1.89.57-4.01.64-6.33.07-2.32.09-4.81.09-7.48v-12.77c0-1.62.15-2.87.46-3.76.27-.91.7-1.6,1.21-2.07.57-.47,1.19-.79,1.92-.97.75-.17,1.6-.35,2.47-.51v-.94c-1.48,0-2.89.02-4.21.03-1.35.02-2.76.03-4.24.03"/>
    <path class="cls-3" d="m408.31,3.03c-1.48,0-3.07,0-4.72-.03-1.67-.02-3.23-.02-4.75-.02v.94c1.34.15,2.4.44,3.16.83.77.38,1.36.93,1.76,1.61.4.69.67,1.55.78,2.59.12,1.05.18,2.28.18,3.68v25.99c0,1.41-.06,2.64-.18,3.68-.11,1.05-.38,1.9-.78,2.62-.41.71-.99,1.25-1.76,1.66-.76.42-1.82.71-3.16.86v.82c1.45-.03,3-.07,4.63-.08,1.61-.01,3.18-.03,4.69-.03s3.06.02,4.76.03c1.68.01,3.27.05,4.77.08v-.82c-1.38-.15-2.45-.42-3.24-.83-.79-.38-1.38-.94-1.83-1.64-.42-.71-.69-1.58-.79-2.62-.15-1.05-.2-2.29-.2-3.73V12.62c0-1.44.05-2.69.2-3.73.1-1.04.37-1.9.79-2.58.46-.65,1.04-1.19,1.83-1.57.79-.39,1.87-.67,3.24-.83v-.94c-1.5,0-3.06,0-4.69.02-1.63.03-3.19.03-4.69.03"/>
    <path class="cls-3" d="m459.04,41.11c-.65.72-1.47,1.33-2.42,1.82-.98.48-2.19.87-3.63,1.14-1.45.29-3.32.42-5.53.42-1.98,0-3.48-.06-4.57-.18-1.09-.12-1.87-.4-2.35-.87-.49-.47-.78-1.17-.88-2.08-.11-.93-.15-2.22-.15-3.87V12.63c0-1.45.06-2.69.18-3.73.12-1.05.39-1.9.83-2.58.4-.65,1.03-1.19,1.8-1.57.81-.39,1.86-.68,3.24-.83v-.94c-1.46,0-3.04,0-4.65.02-1.63.03-3.19.03-4.69.03s-3.08,0-4.74-.03c-1.68-.02-3.24-.02-4.74-.02v.94c1.32.15,2.37.44,3.15.83.75.38,1.36.92,1.76,1.61.4.68.67,1.55.81,2.58.12,1.05.18,2.28.18,3.69v26.09c0,1.42-.07,2.65-.18,3.69-.14,1.05-.4,1.9-.81,2.62-.4.71-1.01,1.27-1.76,1.67-.78.42-1.83.71-3.15.85v.82c2.44-.06,5.05-.11,7.87-.15,2.84-.01,5.48-.01,7.92-.01,3.88,0,7.11.01,9.66.08,2.52.07,4.63.25,6.28.56.27-1.41.68-3.03,1.21-4.83.55-1.8,1.19-3.46,2-4.94l-.63-.46c-.65.94-1.32,1.76-2.02,2.5"/>
    <path class="cls-3" d="m515.54,46.56c-.73-.4-1.41-.94-1.98-1.65-.6-.72-1.14-1.56-1.63-2.57-.47-.99-1.02-2.15-1.59-3.45-1.41-3.14-2.76-6.15-4.05-9.04-1.26-2.87-2.56-5.8-3.85-8.74-1.29-2.94-2.62-5.98-3.98-9.13-1.35-3.14-2.79-6.57-4.27-10.3l-1.98.12c-1.39,3.03-2.81,6.1-4.3,9.24-1.44,3.14-2.9,6.22-4.35,9.24-1.47,3.03-2.86,5.9-4.19,8.62-1.35,2.74-2.57,5.16-3.64,7.31-1.06,2.13-1.98,3.92-2.74,5.33-.72,1.41-1.21,2.31-1.45,2.71-.45.67-1.03,1.31-1.71,1.92-.72.6-1.9,1.01-3.55,1.2v.94c1.51-.05,3.09-.07,4.79-.1,1.69-.01,3.33-.01,4.96-.01h2.1c.57,0,1.14,0,1.71.01.54.03,1.14.05,1.75.06.62.02,1.41.04,2.32.04v-1.06c-1.14-.05-2.09-.18-2.85-.36-.72-.2-1.33-.45-1.75-.77-.42-.32-.75-.67-.91-1.09-.19-.41-.27-.86-.27-1.33,0-.51.08-1.06.27-1.67.15-.62.45-1.38.86-2.27.38-.9.89-1.98,1.49-3.24.61-1.26,1.34-2.77,2.21-4.53h16.77c.87,2,1.59,3.71,2.2,5.13.63,1.41,1.14,2.59,1.56,3.52.41.94.71,1.7.91,2.24.19.56.3.94.3,1.18,0,.44-.07.83-.15,1.2-.07.35-.26.65-.55.93-.32.27-.77.51-1.38.71-.57.18-1.38.31-2.4.36v1.06c.84,0,1.56-.01,2.13-.04.57-.01,1.11-.03,1.62-.06.47-.01,1.01-.01,1.55-.01h2.13c1.75,0,3.53,0,5.33.01,1.78.03,3.53.05,5.26.1v-1.06c-1.08-.09-1.95-.32-2.67-.71m-30.72-18.55c.94-2,2-4.27,3.16-6.82,1.14-2.52,2.42-5.42,3.82-8.68,1.24,3.19,2.35,6.05,3.37,8.6,1.03,2.56,2.01,4.83,2.84,6.9h-13.19Z"/>
    <path class="cls-3" d="m98.64,321.48c-2.18-1.29-4.07-3.06-5.28-5.29-1.63-3.03-2.45-6.69-2.97-10.44l-.3-164.94c.02-14.89.7-30.61,9.65-40.64-10.59,3-20.74,9.78-26.44,22.35-11.38-7.2-23.81-12.51-37.41-10.66-14.31,1.08-29.67,9.52-33.65,27.13,3.58-2.21,6.99-4.78,10.84-6.32,6.54-2.42,13.51-.87,18.97,3.27,3.63,2.56,3.98,7.49,4.43,11.63v123.57s-.44,33.81-.44,33.81c-.95,9.54-7.29,15.7-14.26,18.71,0,0-.41.15-.43.45-.02.36.43.53.43.53,19.91,5.55,35.03,24.39,53.1,36.25,5.91-20.22,23.98-21.89,34.77-34.84-3.83-.68-7.43-2.44-11.01-4.56"/>
    <path class="cls-3" d="m439.75,103.03c-5-.85-3.29,5.5-6.47,7.53-9.83,7.43-21.17,10.63-32.08,15.11-21.49,11.33-53.62,16.53-57.43,51.07l-.66,117.47c-.03,5.01.29,10.02.96,14.99l.11.83c.8,5.9,2.68,11.65,5.91,16.64,16.1,24.85,41.31,34.43,65.78,37.01.14-4.54,2.46-7.8,5.26-10.33,2.57-2.31,5.6-4.07,8.75-5.49,23.8-10.75,49.01-18.11,70.36-35.25,8.74-8.14,9.51-21.16,9.92-33.8l.36-101.89c.03-6.25-.41-12.49-1.31-18.68l-.31-2.12c-.53-3.7-1.58-7.33-3.15-10.72-13.28-28.65-41.05-38.53-66-42.38m20.7,230.03c-20.38,1.29-41.29-.92-56.82-15.63-4.95-4.69-8.27-10.91-9.52-17.61-.03-.15-.06-.3-.09-.46-1.14-6.28-1.58-12.67-1.58-19.06v-67.44l.48-80.2c22.47-.29,47.63,2.1,63.76,24.05,4.39,7.36,3.98,17.45,4.4,27.22l-.64,149.12Z"/>
    <path class="cls-3" d="m307.23,256.1c-7.5-23.54-28.91-30.27-45.52-38.01,15.8-4.82,32.72-11.37,41.68-29.35,5.11-10.26,5.33-24.67,2.37-36.6-11.19-35.12-42.34-46.51-70.12-50.08,0,0,0,.02,0,.02-4.98-.82-3.27,5.5-6.45,7.53-1.79,1.36-3.67,2.51-5.55,3.61,0,0,.01,0,.02,0-23.66,13.4-50.9,17.74-73.43,34.16-10.58,8.62-15.59,24.34-13.58,40.14,2.35,23.2,20.92,37.53,37.52,44.94,1.85.89,4.44,2.25,6.4,3.24-10.05,3.14-20.22,5.79-28.7,12.97-9.84,7.26-17,20.46-18.6,33.8-2.57,22.7,5.67,43.87,20.89,57.46,15.27,15.77,35.2,18.91,54,21.81,1.03-2.87,2.84-5.22,4.86-7.3,2.64-2.73,5.69-5.06,9.01-6.9,26.33-14.62,57.69-17.22,79.12-43.71,8.94-12.47,10.44-31.45,6.08-47.72m-119.33,10.24v-27.05s33.49,12.43,54.05,21.23c4.89,2.09,8.78,6.09,10.42,11.15,2.29,7.12,1.82,16.1,1.99,24.07l-.34,36.13c-23.85-.14-50.66-.55-63.58-27.2-3.68-7.57-2.53-36.94-2.53-36.94v-1.39Zm66.54-50.91c-15.57-5.18-31.67-11.01-47.24-17.46-2.57-1.06-5.02-2.33-7.35-3.83-5.38-3.46-11.6-8.06-11.6-15.89,0-16.93.16-31.32.26-47.74,17.66-.84,34.65,1.92,49.06,11.91,7.76,5.38,13.58,13.12,15.77,22.31,3.76,15.71,1.11,35.1,1.11,50.7"/>
    <path class="cls-3" d="m727.75,367.53c0,6.15-4.82,10.97-11.1,10.97s-11.17-4.82-11.17-10.97,4.96-10.84,11.17-10.84,11.1,4.83,11.1,10.84m-19.5,0c0,4.82,3.57,8.66,8.46,8.66s8.26-3.84,8.26-8.59-3.5-8.73-8.32-8.73-8.4,3.9-8.4,8.66m6.67,5.68h-2.51v-10.84c.99-.2,2.38-.33,4.16-.33,2.05,0,2.97.33,3.77.79.6.46,1.06,1.32,1.06,2.38,0,1.19-.93,2.12-2.25,2.52v.13c1.06.39,1.66,1.19,1.98,2.64.33,1.65.53,2.31.79,2.71h-2.71c-.33-.39-.53-1.39-.86-2.64-.2-1.19-.86-1.72-2.25-1.72h-1.19v4.36Zm.07-6.15h1.19c1.39,0,2.51-.46,2.51-1.58,0-.99-.73-1.66-2.31-1.66-.67,0-1.13.07-1.39.14v3.1Z"/>
    <path class="cls-3" d="m641.34,103.03c-5.01-.85-3.29,5.5-6.47,7.53-9.83,7.43-21.18,10.63-32.08,15.11-21.49,11.33-53.62,16.53-57.43,51.07l-.66,117.47c-.03,5.01.29,10.02.96,14.99l.11.83c.8,5.9,2.68,11.65,5.91,16.64,16.1,24.85,41.31,34.43,65.78,37.01.14-4.54,2.46-7.8,5.26-10.33,2.57-2.31,5.6-4.07,8.75-5.49,23.8-10.75,49.01-18.11,70.36-35.25,8.74-8.14,9.51-21.16,9.92-33.8l.36-101.89c.03-6.25-.41-12.49-1.31-18.68l-.31-2.12c-.53-3.7-1.58-7.33-3.15-10.72-13.28-28.65-41.05-38.53-66-42.38m20.7,230.03c-20.38,1.29-41.28-.92-56.82-15.63-4.95-4.69-8.27-10.91-9.52-17.61-.03-.15-.06-.3-.09-.46-1.14-6.28-1.58-12.67-1.58-19.06v-67.44l.48-80.2c22.47-.29,47.63,2.1,63.76,24.05,4.39,7.36,3.98,17.45,4.4,27.22l-.64,149.12Z"/>
  </g>
</svg>