<?xml version="1.0" encoding="UTF-8"?><svg id="Layer_1" xmlns="http://www.w3.org/2000/svg" viewBox="0 0 1200 1200"><defs><style>.cls-1{fill:#fff;}</style></defs><path class="cls-1" d="m98.18,1079.91v38.08h-25.4v-38.08H25.04v-20.7l50.23-125.03h22.9v122.27h12.42v23.46h-12.42Zm-25.4-83.08l-22.9,59.62h22.9v-59.62Z"/><path class="cls-1" d="m171.34,1121.3c-24.85,0-41.41-16.82-41.41-41.94v-106.54c0-25.11,16.56-41.94,41.41-41.94s41.39,16.83,41.39,41.94v106.54c0,25.12-16.27,41.94-41.39,41.94Zm14.35-150.95c0-7.45-5.52-13.54-14.35-13.54s-14.08,6.09-14.08,13.54v111.49c0,7.46,5.52,13.53,14.08,13.53s14.35-6.07,14.35-13.53v-111.49Z"/><path class="cls-1" d="m280.09,1121.3c-24.84,0-41.39-16.82-41.39-41.94v-106.54c0-25.11,16.55-41.94,41.39-41.94s41.4,16.83,41.4,41.94v106.54c0,25.12-16.28,41.94-41.4,41.94Zm14.36-150.95c0-7.45-5.53-13.54-14.36-13.54s-14.07,6.09-14.07,13.54v111.49c0,7.46,5.52,13.53,14.07,13.53s14.36-6.07,14.36-13.53v-111.49Z"/><path class="cls-1" d="m434.13,1121.3c-26.77,0-44.44-18.76-44.44-43.88v-102.67c0-25.11,17.67-43.88,44.44-43.88s41.67,17.66,41.67,42.23v26.48h-25.95v-27.04c0-8.84-4.97-15.19-15.17-15.19s-15.18,6.35-15.18,14.91v107.64c0,8.56,4.97,14.91,15.18,14.91s15.17-6.35,15.17-15.18v-27.34h25.95v26.79c0,24.54-14.63,42.2-41.67,42.2Z"/><path class="cls-1" d="m541.51,1121.3c-26.49,0-43.88-17.93-43.88-43.6v-103.24c0-25.38,17.39-43.59,43.88-43.59s43.89,18.21,43.89,43.59v103.24c0,25.66-17.39,43.6-43.89,43.6Zm14.35-149.03c0-8.82-5.24-14.91-14.35-14.91s-14.35,6.09-14.35,14.91v107.64c0,8.83,5.24,14.91,14.35,14.91s14.35-6.09,14.35-14.91v-107.64Z"/><path class="cls-1" d="m678.42,1118l-30.92-83.35-10.21-28.16v111.51h-26.5v-183.81h25.95l28.7,84.19,9.37,28.42v-112.61h26.23v183.81h-22.63Z"/><path class="cls-1" d="m728.39,1118v-183.81h73.42v25.95h-44.17v50.78h30.64v24.28h-30.64v56.03h44.17v26.77h-73.42Z"/><path class="cls-1" d="m860.05,1121.3c-25.38,0-41.39-16.27-41.39-41.39v-35.06h27.87v35.61c0,9.4,4.7,14.36,12.97,14.36s12.7-4.96,12.7-14.36v-146.28h29.26v144.63c0,25.38-15.45,42.49-41.41,42.49Z"/><path class="cls-1" d="m970.2,1121.3c-26.5,0-43.88-17.93-43.88-43.6v-103.24c0-25.38,17.39-43.59,43.88-43.59s43.89,18.21,43.89,43.59v103.24c0,25.66-17.4,43.6-43.89,43.6Zm14.35-149.03c0-8.82-5.24-14.91-14.35-14.91s-14.35,6.09-14.35,14.91v107.64c0,8.83,5.24,14.91,14.35,14.91s14.35-6.09,14.35-14.91v-107.64Z"/><path class="cls-1" d="m1078.13,1121.3c-26.5,0-43.06-16.27-43.06-42.2v-16.3h26.78v15.73c0,11.59,5.25,18.24,15.46,18.24s15.45-6.35,15.45-16.58c0-16.01-8-27.87-23.46-44.15-15.18-15.19-32.84-36.71-32.84-60.17,0-24.85,14.35-44.98,42.78-44.98,24.56,0,40.58,17.11,40.58,42.22v16.56h-26.5v-16.56c0-10.21-4.7-17.11-14.08-17.11-8.56,0-14.35,5.51-14.35,14.9,0,17.93,8.01,26.77,25.12,44.98,17.93,18.5,31.18,36.97,31.18,60.17,0,29.25-19.04,45.25-43.05,45.25Z"/><path class="cls-1" d="m1174.96,944.54c0,4.66-1.6,8.63-4.81,11.86-3.23,3.22-7.18,4.86-11.84,4.86s-8.61-1.6-11.77-4.75c-3.14-3.14-4.71-7.05-4.71-11.7s1.63-8.59,4.89-11.79c3.28-3.15,7.37-4.76,12.21-4.76,4.52,0,8.3,1.59,11.38,4.71,3.12,3.14,4.64,6.99,4.64,11.57Zm-2.05-.13c0-3.92-1.44-7.35-4.33-10.24-2.92-2.88-6.31-4.3-10.26-4.3s-7.19,1.48-10.11,4.5c-2.88,3.01-4.33,6.49-4.33,10.44s1.38,7.42,4.22,10.32c2.8,2.93,6.16,4.39,10,4.39s7.4-1.53,10.34-4.52c2.99-3.02,4.46-6.54,4.46-10.58Zm-4.97,7.79c0,.53-.26.98-.77,1.36-.52.35-1.12.51-1.89.51-1.57,0-2.8-.59-3.66-1.8-.51-.69-.8-1.93-.8-3.75-.07-1.19-.19-2.02-.38-2.48-.19-.46-.57-.84-1.18-1.17-.61-.31-1.62-.46-2.92-.46h-.61v5.29c0,1.63.03,2.5.12,2.55.1.12.63.15,1.47.15h.39c.42,0,.64.05.71.11.09.06.13.21.13.51,0,.43-.13.66-.32.73-.19,0-.83.01-1.86.01h-6.54c-.22,0-.35-.21-.35-.63s.16-.62.48-.62c1.31,0,1.99-.05,2.08-.13.11-.06.16-.96.16-2.7v-13.33c-.09-.22-.67-.28-1.83-.22h-.76c-.15,0-.26-.15-.26-.43,0-.59.14-.88.39-.88s.63,0,1.12.02c.96.07,2.21.11,3.76.11h3.39c2.13,0,3.81.37,5.07,1.13,1.24.77,1.86,1.8,1.86,3.09,0,2.41-1.77,3.93-5.36,4.55v.17c1.82.35,3.08,1.04,3.88,2.03.77.98,1.12,2.41,1.09,4.23-.04,1.84.35,2.77,1.12,2.77.19,0,.26-.07.26-.19,0-.07-.04-.18-.1-.36-.03-.03-.06-.12-.06-.24,0-.69.41-1.04,1.15-1.04.68,0,1.02.36,1.02,1.1Zm-6.73-12.87c0-1.19-.32-2.01-.96-2.48-.57-.48-1.63-.72-3.17-.72-.7,0-1.05.04-1.18.11-.09.1-.16.37-.16.86v5.94h.41l.84-.04c1.5-.11,2.56-.42,3.21-.98.67-.53,1.02-1.42,1.02-2.69Z"/><path class="cls-1" d="m1001.56,854.88l-1.55,5.93-36.53-.4c.32,0-.98.03-3.87.1-9.31.19-15.7.3-19.19.3l1.55-5.93,41.08.49c6.26.13,12.43-.03,18.51-.49"/><path class="cls-1" d="m322.05,836.02l5.18-7.9c1.77-2.71,3.52-5.38,5.27-7.99,1.25.06,2.45.1,3.63.11,1.17.02,4.49.1,9.99.24,2.23-.12,3.46-.17,3.68-.17.49,0,.74.2.74.6,0,.6-.1,1.13-.31,1.59-.21.46-.43.69-.67.69-.36,0-.64-.03-.86-.08l-2.57-.17-2.69-.17h-.65c-.74,0-1.24.62-1.51,1.85-.22.74-.41,1.37-.55,1.89-.15.52-.31,1.03-.47,1.55-.14.45-.32,1.04-.57,1.76-.68,2.12-1.26,3.99-1.75,5.63l-10.52,34.22c-1.39,4.66-2.08,7.21-2.08,7.64s.08.67.25.82c.16.14.69.26,1.59.34.9.08,2.32.17,4.24.26.69.05,1.08.1,1.19.12.11.03.16.16.16.39,0,.05-.08.45-.24,1.16-.14.8-.4,1.2-.78,1.2-.33,0-.57-.03-.74-.08-2.31-.28-7.27-.43-14.89-.43-1.61,0-2.62.03-3.06.08-2.12.17-3.63.25-4.53.25-.33,0-.49-.14-.49-.43,0-.45.13-.97.38-1.53.26-.56.48-.84.67-.84l1.96.09c.11,0,1.33-.1,3.68-.3.65-.09,1.15-.3,1.48-.63.34-.32.67-.97,1-1.91.63-1.94,1.49-4.77,2.61-8.46l10.6-33.24,1.23-4.03c.27-.89.8-2.73,1.59-5.54l-30.55,48-2,3.18c-.6.77-1.13,1.64-1.59,2.62-.49,1-.96,1.5-1.43,1.5-.38,0-.62-.21-.71-.62-.1-.41-.21-1.66-.31-3.76l-2.24-44.05c-.16-2.21-.25-3.61-.25-4.21-.14-1.14-.25-1.94-.32-2.4l-.78,1.76-1.26,3.79-1.55,5.1-9.14,29.03c-.82,2.49-1.46,4.81-1.92,6.96-.21,1.43-.69,3.03-1.43,4.81-.16.37-.24.65-.24.81,0,.32.24.61.74.88.49.27,1,.41,1.55.41,1.85,0,3.32-.05,4.4-.17.16-.05.4-.09.69-.09.43,0,.65.22.65.65,0,1.69-.36,2.54-1.1,2.54-.08,0-1.04-.06-2.9-.17-.41-.05-.91-.08-1.5-.08l-12.12.17c-1.57.11-2.53.16-2.85.16-.49,0-.74-.19-.74-.6,0-.63.13-1.19.41-1.68.27-.48.54-.73.82-.73h.61c.81.14,2.25.21,4.33.21,1.22,0,2.05-.1,2.48-.32.43-.21.78-.69,1.02-1.44.46-1.37,1.68-5.72,3.67-13.05l9.55-29.54c.34-1.11.64-2.05.87-2.79.23-.75.56-1.72.96-2.92.16-1.09.41-1.96.73-2.62.12-.23.17-.38.19-.49,0-.1.03-.19.08-.27.04-.09.08-.15.1-.19.03-.04.11-.14.25-.28.27-.37.41-.63.41-.77,0-.66-.98-.99-2.94-.99-2.28,0-3.7.03-4.24.08h-1.43c-.57,0-.86-.16-.86-.52,0-.57.16-1.15.47-1.76.31-.6.6-.9.88-.9.16,0,.31.04.45.13l1.14.16h2.78l4.56.09,5.96.17h2.09c.21-.05.49-.08.81-.08.44,0,.74.1.92.27.17.19.32.67.45,1.44.12.77.25,2.04.38,3.8.14,1.76.32,4.55.53,8.35l.74,25.68c.05,1.2.1,2.32.14,3.32.03,1.02.07,1.79.1,2.3l18.32-29.46Z"/><path class="cls-1" d="m355.71,860.84c-.69,1.69-1.23,3.18-1.66,4.48-.42,1.31-.72,2.53-.89,3.65-.18,1.13-.27,2.28-.27,3.46,0,2.4.56,4.27,1.67,5.59,1.12,1.31,2.72,1.97,4.82,1.97s4.18-.73,6.37-2.19c1.35-.91,2.43-1.8,3.22-2.66.78-.86,1.68-2.1,2.69-3.74.41-.6.71-.9.93-.9.23,0,.54.17.97.52.41.34.63.61.63.82,0,.45-.65,1.51-1.98,3.17-1.32,1.66-2.47,2.86-3.44,3.61-3.32,2.58-6.98,3.87-10.97,3.87-3.59,0-6.5-1.15-8.71-3.46-2.22-2.31-3.33-5.29-3.33-8.96,0-3.06.75-6.24,2.25-9.55,1.49-3.31,3.48-6.35,5.95-9.12,2.47-2.78,5.15-5,8.04-6.68,2.88-1.67,5.67-2.51,8.36-2.51,2.5,0,4.46.65,5.87,1.95,1.42,1.31,2.12,3.15,2.12,5.52,0,1.57-.31,3.04-.94,4.42-.62,1.37-1.48,2.51-2.57,3.39-1.03.8-2.25,1.48-3.67,2.04-1.42.56-2.93.99-4.55,1.28-1.62.3-3.24.45-4.87.45-1.37,0-3.38-.14-6.04-.43m1.1-2.84c1.83.49,3.29.73,4.4.73,3.48,0,6.24-1.11,8.29-3.35,1.84-2.03,2.77-4.05,2.77-6.06,0-1.31-.34-2.38-1-3.19-.66-.82-1.53-1.22-2.58-1.22-3.94,0-7.9,4.36-11.87,13.09"/><path class="cls-1" d="m414.91,843.88v-.3c0-.52.18-.91.55-1.2.37-.28.81-.43,1.32-.43.58,0,1.05.19,1.43.56.38.37.58.89.58,1.55,0,.83-.27,1.58-.82,2.25-.54.67-1.81,1.88-3.79,3.63-6.8,6.22-11.53,10.58-14.19,13.1-2.67,2.51-4.76,4.58-6.28,6.18-1.53,1.6-2.8,3.08-3.84,4.46,1.8-.17,3.22-.25,4.29-.25s2.18.13,3.2.38c1.02.26,2.29.69,3.81,1.28,4.24,1.7,6.93,2.54,8.07,2.54.87,0,1.7-.45,2.49-1.36.78-.9,1.17-1.85,1.17-2.85,0-.66-.16-1.13-.51-1.42-.34-.29-1.05-.59-2.14-.91-.85-.34-1.26-1.04-1.26-2.1,0-.89.3-1.61.9-2.19.59-.57,1.35-.86,2.28-.86,1.09,0,1.99.45,2.69,1.35.71.91,1.06,2.03,1.06,3.37,0,1.81-.36,3.56-1.11,5.26-.73,1.7-1.78,3.14-3.14,4.31-2.31,1.9-4.43,2.84-6.36,2.84-.68,0-1.25-.05-1.72-.17-.45-.11-1.92-.56-4.4-1.33-2.36-.82-4.74-1.53-7.12-2.1-2.38-.57-4.03-.86-4.95-.86-.52,0-.89.06-1.1.19-.22.13-.41.41-.58.84-.19.6-.41,1.03-.65,1.29-.25.25-.58.38-1.02.38-.47,0-.83-.14-1.1-.43-.27-.28-.41-.67-.41-1.15,0-.86.38-1.85,1.14-2.96.76-1.12,2.33-2.97,4.69-5.54,6.72-7.41,12.82-13.45,18.32-18.12.95-.83,1.66-1.46,2.12-1.89.47-.43.95-.89,1.48-1.37-3.41.71-5.61,1.16-6.63,1.33-1.02.17-2.16.26-3.41.26-1.39,0-2.83-.21-4.33-.65-1.5-.43-2.71-.99-3.63-1.68-.22-.23-.41-.34-.57-.34-.27,0-.6.45-.98,1.33-.38.89-.72,1.95-1.02,3.18-.13.57-.39.86-.77.86-1.11,0-1.68-.34-1.68-1.03,0,.05.07-.13.21-.56.84-1.72,1.83-4.6,2.97-8.67.25-1.23.65-1.85,1.18-1.85.2,0,.54.14,1.02.43,1.04.63,2.64,1.28,4.82,1.94,2.17.66,4.41,1.2,6.73,1.63,2.32.43,4.22.65,5.71.65,3.7,0,5.56-.56,5.56-1.67,0-.18-.1-.55-.29-1.12"/><path class="cls-1" d="m449.09,842.21c2.29,0,4.16.6,5.63,1.8,1.48,1.2,2.21,2.77,2.21,4.68,0,1.32-.4,2.46-1.17,3.41-.78.96-1.72,1.44-2.83,1.44-.9,0-1.66-.31-2.27-.92-.61-.62-.92-1.37-.92-2.26,0-.43.14-.85.43-1.26.28-.41.62-.69,1-.84.38-.11.61-.23.69-.34.08-.12.12-.36.12-.73,0-.74-.32-1.35-.94-1.83-.63-.47-1.43-.71-2.4-.71-3.86,0-7.43,3.02-10.68,9.06-1.93,3.66-3.41,7.16-4.45,10.48-1.03,3.33-1.55,6.16-1.55,8.5,0,4.53,1.68,6.79,5.02,6.79,2.31,0,4.42-.63,6.34-1.89,1.92-1.26,3.87-3.29,5.86-6.1.48-.71.84-1.07,1.06-1.07s.52.19.91.58c.4.39.59.7.59.93,0,.32-.62,1.21-1.86,2.68-1.24,1.48-2.37,2.63-3.41,3.46-3.15,2.63-6.6,3.94-10.36,3.94-3.37,0-6.11-1.11-8.24-3.35-2.12-2.23-3.18-5.12-3.18-8.68,0-3.06.76-6.34,2.26-9.85,1.51-3.5,3.56-6.73,6.14-9.68,1.55-1.78,3.22-3.27,4.99-4.49,1.78-1.22,3.62-2.15,5.53-2.79,1.9-.65,3.72-.97,5.46-.97"/><path class="cls-1" d="m492.91,847.49l1.83-3.91c.36-.63.57-.97.63-1.03.07-.05.23-.09.47-.09-.08,0,.39.06,1.42.18h.33c1.17,0,2.08-.12,2.73-.35.49-.11.75-.16.78-.16.43,0,.65.23.65.69,0,.05-.35,1.11-1.05,3.17l-9.38,24.43c-1.06,3.06-1.59,5.11-1.59,6.14,0,.58.15,1.05.45,1.42.3.38.68.56,1.15.56,1,0,2.25-.58,3.71-1.76,1.47-1.17,2.8-2.62,4-4.33.52-.71.91-1.26,1.2-1.64.28-.36.5-.56.63-.56.11,0,.28.1.53.28.24.19.46.41.64.67.16.25.26.44.26.56,0,.32-.57,1.2-1.71,2.67-1.15,1.46-2.27,2.7-3.39,3.73-3.04,2.78-6.03,4.17-8.97,4.17-1.63,0-2.94-.44-3.93-1.31-1-.87-1.5-2.03-1.5-3.46,0-.89.29-2.35.86-4.38-1.9,2.27-3.63,4.06-5.18,5.39-1.55,1.33-3.06,2.3-4.53,2.92-1.47.61-2.96.92-4.49.92-2.78,0-5.06-1.06-6.86-3.18-1.79-2.12-2.69-4.82-2.69-8.11,0-3.89,1.36-8.14,4.09-12.75,2.73-4.61,6.11-8.46,10.1-11.57,4-3.11,7.74-4.66,11.21-4.66,1.86,0,3.41.44,4.66,1.33,1.25.89,2.23,2.23,2.93,4.04m-6.32,15.97l3.22-7.9c.74-1.77,1.1-3.26,1.1-4.47,0-1.03-.29-2.06-.86-3.09-.56-1.03-1.3-1.85-2.18-2.45-.88-.6-1.82-.91-2.8-.91-2.23,0-4.51,1.22-6.83,3.68-2.33,2.45-4.54,5.94-6.63,10.5-1.31,2.75-2.37,5.54-3.21,8.4-.82,2.84-1.24,5.15-1.24,6.89,0,1.49.36,2.68,1.09,3.59.72.9,1.71,1.35,2.96,1.35,1.96,0,4.73-1.65,8.32-4.94,1.79-1.64,3.14-3.13,4.04-4.49.89-1.35,1.9-3.41,3.02-6.16"/><path class="cls-1" d="m532.94,826.19l-15.55,43.62c-.38,1.03-.75,2.29-1.12,3.78-.36,1.49-.55,2.52-.55,3.09,0,.52.21.98.63,1.39.42.42.89.63,1.41.63.87,0,2.04-.56,3.5-1.7,1.48-1.13,2.69-2.38,3.68-3.76.49-.69.9-1.24,1.22-1.68.33-.43.54-.69.63-.77.1-.09.2-.13.3-.13.23,0,.5.19.84.58.34.38.52.69.52.92,0,.25-.56,1.07-1.66,2.43-1.1,1.36-2.12,2.49-3.04,3.37-3.13,2.95-6.29,4.42-9.51,4.42-1.77,0-3.22-.48-4.34-1.44-1.13-.95-1.7-2.18-1.7-3.68,0-1.66.73-4.53,2.16-8.63l14.48-39.85c.87-2.4,1.46-3.89,1.76-4.47,0-.6-.37-.9-1.11-.9l-5.99.3c-.3,0-.45-.16-.45-.47,0-.57.1-1.16.28-1.76.03-.17.17-.27.43-.3.26-.03,1.13-.04,2.63-.04,1.74-.09,3.72-.32,5.96-.69,2.23-.37,4.03-.76,5.43-1.16.11-.05.3-.08.57-.08s.41.17.41.52-.2,1.22-.59,2.64c-.4,1.42-.81,2.68-1.24,3.8"/><path class="cls-1" d="m570.8,860.76l-9.18,13.35c-1.17,2.01-1.75,3.04-1.75,3.1,0,.48.28.78.85.9.58.12,2.07.21,4.49.3,1.39.03,2.21.1,2.45.22.24.11.36.46.36,1.03,0,.66-.07,1.1-.2,1.33-.14.23-.43.34-.86.34h-.69l-7.83-.17c-7.21,0-11.14.06-11.79.17h-.57c-.74,0-1.1-.47-1.1-1.42,0-1.06.36-1.59,1.1-1.59.35,0,1.18.07,2.48.21h1.02c1.39,0,2.35-.09,2.88-.28.53-.18,1.07-.56,1.61-1.13,1.63-1.72,4.03-4.82,7.19-9.32l22.79-32.89c1.63-2.2,3.68-5.08,6.12-8.63.49-.69.91-1.28,1.29-1.81.36-.51.65-.94.87-1.28.25-.34.41-.58.49-.73.08-.14.25-.43.53-.86.76-1.15,1.38-1.96,1.86-2.43.48-.47.98-.71,1.49-.71.81,0,1.22.41,1.22,1.21,0,.89-.21,3.96-.65,9.23l-.41,6.18-1.35,32.98c-.11,6.82-.16,9.42-.16,7.82,0,1,.14,1.66.45,1.97.3.32.95.5,1.96.56,1.33,0,2.97.08,4.93.22.57,0,.85.29.85.86,0,1.17-.44,1.76-1.35,1.76l-12.6-.26c-3.7,0-6.93.12-9.71.34h-.57c-.89,0-1.35-.52-1.35-1.59,0-.45.08-.77.23-.94.14-.17.47-.26.96-.26,2.45,0,4.4-.13,5.83-.38.74-.08,1.24-.19,1.53-.3.28-.11.44-.3.47-.56.08-.32.17-1.15.24-2.49l.78-12.02c.05-.23.08-.65.08-1.25,0-.4-.23-.6-.69-.6-.76,0-1.54.03-2.33.09h-2c-.9,0-2.23-.03-4-.09-2.53-.05-4.46-.08-5.79-.08-.82,0-1.65-.03-2.49-.08m17.37-2.84l1.35-17.39c.33-4.23.49-6.75.49-7.56l-.08-.73c-.58.77-1.8,2.53-3.68,5.28l-8.36,12.24-2.53,3.61-1.55,2.36c-.32.51-.72,1.07-1.18,1.67-.16.17-.24.29-.24.34,0,.29.24.43.74.43.05,0,1.16-.03,3.34-.09h7.01c1.55,0,3.12-.05,4.69-.17"/><path class="cls-1" d="m628.94,846.33l-1.83,5.88c1.63-2.05,2.93-3.6,3.87-4.63.95-1.04,1.92-1.92,2.9-2.67,2.47-1.81,4.7-2.71,6.68-2.71,1.25,0,2.25.41,2.98,1.22.74.82,1.11,1.96,1.11,3.41s-.41,2.64-1.22,3.52c-.82.89-1.9,1.33-3.26,1.33-1.12,0-1.67-.44-1.67-1.33,0-.29.03-.54.08-.78v-.34c0-.69-.17-1.24-.51-1.67-.34-.43-.78-.65-1.33-.65-1.36,0-3.43,1.59-6.2,4.76-1.63,1.83-3.05,3.76-4.25,5.78-1.2,2.02-2.23,4.26-3.1,6.72l-5.42,14.86c-.17.43-.36.98-.58,1.67-.08.23-.53.35-1.35.35-.44,0-1.47.05-3.1.17l-2.08.16h-.24c-.23,0-.33-.11-.33-.34,0-.18.08-.54.25-1.08l11.09-29.88.93-2.53c.14-.26.25-.49.32-.69.09-.2.14-.33.17-.39,0-.4-.29-.6-.86-.6h-.24c-1.83.34-3.64.52-5.43.52-.49,0-.74-.23-.74-.69,0-1.12.5-1.68,1.5-1.68,2.91-.29,5-.54,6.29-.77,1.28-.23,3.04-.65,5.3-1.25l.61-.21c.32,0,.49.21.49.65,0,.37-.1.98-.29,1.82-.19.85-.38,1.53-.57,2.04"/><path class="cls-1" d="m665.62,846.24l-8.94,23.74c-1.17,3.09-1.75,5.17-1.75,6.22,0,.69.2,1.24.61,1.68.41.43.96.65,1.63.65,1.55,0,3.23-.86,5.02-2.58.8-.78,2.1-2.42,3.92-4.94.27-.45.56-.69.85-.69.25,0,.58.19.98.56.41.38.61.67.61.86,0,.32-.63,1.26-1.9,2.82-1.26,1.56-2.38,2.78-3.37,3.67-2.74,2.4-5.48,3.61-8.2,3.61-2.01,0-3.69-.53-5.02-1.59-1.33-1.06-1.99-2.4-1.99-4.04,0-1.75.71-4.47,2.16-8.15l8.36-21.98h-6.2c-.44,0-.65-.12-.65-.34.16-.97.29-1.59.39-1.85.09-.25.26-.38.51-.38h.44l4.9.08c.58,0,1.07-.03,1.51-.08l2.04-5.45c.41-1.11.67-1.77.78-1.97.1-.2.25-.3.45-.3l1.84.08c.98,0,2.25-.34,3.83-1.03.38-.11.62-.16.69-.16.22,0,.33.08.33.25s-.25.99-.74,2.45l-2.28,6.22h1.5l3.35-.08,2.78-.17h.41c.54,0,.82.24.82.73,0,1.46-.41,2.19-1.22,2.19-1.01,0-2.15-.03-3.44-.09h-1.1c-.84,0-2.14.03-3.91.09"/><path class="cls-1" d="m686.47,860.84c-.68,1.69-1.23,3.18-1.66,4.48-.41,1.31-.71,2.53-.89,3.65-.18,1.13-.26,2.28-.26,3.46,0,2.4.55,4.27,1.66,5.59,1.12,1.31,2.73,1.97,4.82,1.97s4.18-.73,6.36-2.19c1.36-.91,2.43-1.8,3.22-2.66.78-.86,1.68-2.1,2.69-3.74.41-.6.72-.9.93-.9s.54.17.96.52c.42.34.63.61.63.82,0,.45-.66,1.51-1.98,3.17-1.33,1.66-2.47,2.86-3.45,3.61-3.32,2.58-6.98,3.87-10.97,3.87-3.59,0-6.49-1.15-8.71-3.46-2.22-2.31-3.32-5.29-3.32-8.96,0-3.06.74-6.24,2.24-9.55,1.49-3.31,3.48-6.35,5.95-9.12,2.48-2.78,5.15-5,8.04-6.68,2.88-1.67,5.67-2.51,8.36-2.51,2.5,0,4.47.65,5.88,1.95,1.41,1.31,2.12,3.15,2.12,5.52,0,1.57-.31,3.04-.93,4.42-.63,1.37-1.48,2.51-2.57,3.39-1.04.8-2.26,1.48-3.68,2.04-1.42.56-2.93.99-4.55,1.28-1.62.3-3.24.45-4.87.45-1.36,0-3.37-.14-6.04-.43m1.1-2.84c1.83.49,3.29.73,4.41.73,3.48,0,6.24-1.11,8.28-3.35,1.85-2.03,2.78-4.05,2.78-6.06,0-1.31-.34-2.38-1-3.19-.67-.82-1.53-1.22-2.59-1.22-3.94,0-7.9,4.36-11.87,13.09"/><path class="cls-1" d="m734.66,841.95c2.69,0,4.97.66,6.84,1.98,1.86,1.31,2.79,2.93,2.79,4.85,0,.63-.14,1.24-.41,1.82-.27.59-.65,1.05-1.14,1.37-.49.33-1.06.49-1.71.49s-1.28-.24-1.81-.73c-.54-.49-.8-1.09-.8-1.8,0-.38.08-.69.23-.93.14-.24.44-.55.87-.92.21-.14.33-.37.33-.69,0-.54-.23-1.04-.69-1.52-.47-.47-1.09-.85-1.88-1.14-.79-.28-1.61-.43-2.45-.43-1.88,0-3.46.55-4.75,1.65-1.29,1.11-1.94,2.49-1.94,4.14,0,1.29.31,2.48.93,3.57.63,1.09,1.88,2.59,3.76,4.51,2.07,2.1,3.52,4.03,4.38,5.8.85,1.78,1.28,3.7,1.28,5.75,0,3.61-1.33,6.6-3.98,8.96-2.65,2.36-5.98,3.54-9.98,3.54-3.67,0-6.69-.89-9.05-2.68-2.36-1.79-3.55-4.07-3.55-6.85,0-1.57.46-2.88,1.37-3.91.91-1.03,2.1-1.55,3.57-1.55,1.03,0,1.83.29,2.4.86.58.58.86,1.35.86,2.32,0,.86-.17,1.44-.51,1.76-.34.32-1.17.67-2.51,1.07-.55.17-.82.58-.82,1.2,0,1.41.77,2.62,2.33,3.65,1.55,1.04,3.38,1.55,5.5,1.55,2.31,0,4.22-.69,5.75-2.06,1.52-1.37,2.29-3.09,2.29-5.15,0-1.14-.29-2.2-.86-3.17-.57-.98-1.88-2.63-3.92-4.98-1.93-2.26-3.22-4.09-3.87-5.48-.65-1.39-.98-3-.98-4.83,0-2.32.52-4.4,1.55-6.25,1.03-1.84,2.48-3.26,4.35-4.27,1.86-1,3.93-1.5,6.22-1.5"/><path class="cls-1" d="m782.18,847.49l1.83-3.91c.36-.63.57-.97.64-1.03.06-.05.22-.09.47-.09-.08,0,.4.06,1.43.18h.32c1.17,0,2.08-.12,2.73-.35.49-.11.74-.16.78-.16.43,0,.65.23.65.69,0,.05-.35,1.11-1.05,3.17l-9.38,24.43c-1.06,3.06-1.59,5.11-1.59,6.14,0,.58.15,1.05.45,1.42.3.38.67.56,1.14.56,1,0,2.25-.58,3.71-1.76,1.47-1.17,2.8-2.62,4-4.33.52-.71.92-1.26,1.2-1.64.28-.36.5-.56.63-.56.11,0,.29.1.54.28.24.19.45.41.63.67.17.25.26.44.26.56,0,.32-.57,1.2-1.71,2.67-1.14,1.46-2.27,2.7-3.39,3.73-3.05,2.78-6.04,4.17-8.97,4.17-1.63,0-2.95-.44-3.94-1.31-.99-.87-1.49-2.03-1.49-3.46,0-.89.28-2.35.86-4.38-1.91,2.27-3.63,4.06-5.18,5.39-1.55,1.33-3.06,2.3-4.53,2.92-1.48.61-2.97.92-4.49.92-2.77,0-5.05-1.06-6.85-3.18-1.79-2.12-2.69-4.82-2.69-8.11,0-3.89,1.37-8.14,4.09-12.75,2.74-4.61,6.11-8.46,10.1-11.57,4-3.11,7.74-4.66,11.22-4.66,1.85,0,3.4.44,4.65,1.33,1.25.89,2.23,2.23,2.93,4.04m-6.32,15.97l3.22-7.9c.74-1.77,1.11-3.26,1.11-4.47,0-1.03-.3-2.06-.86-3.09-.57-1.03-1.3-1.85-2.18-2.45-.88-.6-1.81-.91-2.79-.91-2.23,0-4.51,1.22-6.84,3.68-2.32,2.45-4.53,5.94-6.63,10.5-1.31,2.75-2.37,5.54-3.2,8.4-.83,2.84-1.25,5.15-1.25,6.89,0,1.49.36,2.68,1.09,3.59.71.9,1.7,1.35,2.95,1.35,1.96,0,4.73-1.65,8.32-4.94,1.79-1.64,3.14-3.13,4.04-4.49.89-1.35,1.9-3.41,3.02-6.16"/><path class="cls-1" d="m811.76,842.89l2.69-.25c.54-.12,1.02-.17,1.43-.17.38,0,.57.2.57.6,0,1.11-.75,4.16-2.25,9.14,1.04-.97,1.83-1.7,2.41-2.18,3.15-2.95,5.7-4.96,7.63-6.03,1.93-1.08,3.96-1.61,6.07-1.61,1.88,0,3.44.6,4.68,1.79,1.24,1.18,1.85,2.67,1.85,4.44,0,1-.27,2.49-.83,4.46-.56,1.98-1.31,4.07-2.26,6.27l-4.94,11.89c-1.06,2.55-1.59,4.18-1.59,4.9,0,.52.17.95.51,1.31.34.36.72.54,1.16.54,1.01,0,2.29-.64,3.87-1.93,1.57-1.28,3.1-2.96,4.57-5.02.35-.46.64-.69.86-.69s.5.17.86.52c.35.34.53.62.53.81,0,.35-.68,1.31-2.03,2.9-1.34,1.59-2.5,2.79-3.48,3.59-2.72,2.4-5.56,3.61-8.53,3.61-1.61,0-2.96-.45-4.08-1.35-1.12-.9-1.67-1.99-1.67-3.28s.75-3.72,2.25-7.39l6.11-15.33c.57-1.35,1-2.51,1.31-3.5.3-.99.45-1.79.45-2.38,0-.74-.22-1.33-.67-1.78-.45-.45-1.02-.67-1.69-.67-2.64,0-6.61,2.93-11.91,8.8-1.61,1.72-2.71,3.13-3.3,4.22-.6,1.11-1.54,3.48-2.82,7.11l-4.24,11.68-.61,1.85c-.14.57-.28.96-.45,1.18-.16.21-.42.32-.77.32-.25,0-.75-.06-1.51-.17h-.33c-1.63.11-2.54.17-2.73.19-.19.01-.34.04-.45.07-.49.11-.75.17-.78.17-.38,0-.58-.14-.58-.43,0-.06.05-.21.17-.43l.41-1.07,10.03-28.68c.6-2.03,1.11-3.52,1.51-4.47-.08-.46-.69-.69-1.83-.69-.68,0-1.24.03-1.68.08-.27.06-.58.08-.93.08-1.22,0-1.94-.01-2.16-.06-.21-.04-.32-.21-.32-.49,0-.4.09-.82.28-1.26s.36-.67.54-.67l3.42.09c.25,0,.69-.09,1.35-.26l3.92-.34Z"/><path class="cls-1" d="m879.12,847.49l1.83-3.91c.36-.63.57-.97.64-1.03.06-.05.22-.09.47-.09-.08,0,.39.06,1.42.18h.33c1.17,0,2.08-.12,2.73-.35.49-.11.75-.16.78-.16.43,0,.65.23.65.69,0,.05-.35,1.11-1.05,3.17l-9.38,24.43c-1.06,3.06-1.59,5.11-1.59,6.14,0,.58.15,1.05.45,1.42.3.38.68.56,1.15.56,1,0,2.25-.58,3.71-1.76,1.47-1.17,2.8-2.62,4-4.33.52-.71.91-1.26,1.2-1.64.28-.36.5-.56.63-.56.11,0,.29.1.53.28s.46.41.64.67c.16.25.26.44.26.56,0,.32-.57,1.2-1.71,2.67-1.15,1.46-2.27,2.7-3.39,3.73-3.04,2.78-6.03,4.17-8.97,4.17-1.63,0-2.94-.44-3.93-1.31-1-.87-1.49-2.03-1.49-3.46,0-.89.28-2.35.86-4.38-1.91,2.27-3.64,4.06-5.18,5.39-1.55,1.33-3.06,2.3-4.53,2.92-1.47.61-2.96.92-4.49.92-2.78,0-5.06-1.06-6.86-3.18-1.79-2.12-2.69-4.82-2.69-8.11,0-3.89,1.36-8.14,4.09-12.75,2.74-4.61,6.11-8.46,10.1-11.57,4-3.11,7.74-4.66,11.21-4.66,1.86,0,3.41.44,4.66,1.33,1.25.89,2.23,2.23,2.93,4.04m-6.32,15.97l3.22-7.9c.74-1.77,1.1-3.26,1.1-4.47,0-1.03-.29-2.06-.86-3.09-.56-1.03-1.3-1.85-2.18-2.45-.88-.6-1.82-.91-2.8-.91-2.23,0-4.51,1.22-6.83,3.68-2.32,2.45-4.54,5.94-6.63,10.5-1.31,2.75-2.37,5.54-3.21,8.4-.82,2.84-1.24,5.15-1.24,6.89,0,1.49.36,2.68,1.09,3.59.72.9,1.71,1.35,2.96,1.35,1.96,0,4.73-1.65,8.32-4.94,1.79-1.64,3.14-3.13,4.04-4.49.89-1.35,1.9-3.41,3.02-6.16"/><path class="cls-1" d="m919.14,826.19l-15.55,43.62c-.38,1.03-.75,2.29-1.12,3.78-.36,1.49-.54,2.52-.54,3.09,0,.52.21.98.63,1.39.42.42.89.63,1.42.63.87,0,2.03-.56,3.5-1.7,1.48-1.13,2.7-2.38,3.68-3.76.49-.69.9-1.24,1.22-1.68.33-.43.54-.69.63-.77.1-.09.2-.13.31-.13.22,0,.49.19.83.58.34.38.52.69.52.92,0,.25-.56,1.07-1.66,2.43-1.1,1.36-2.12,2.49-3.04,3.37-3.13,2.95-6.29,4.42-9.51,4.42-1.77,0-3.22-.48-4.34-1.44-1.13-.95-1.7-2.18-1.7-3.68,0-1.66.73-4.53,2.16-8.63l14.48-39.85c.87-2.4,1.46-3.89,1.76-4.47,0-.6-.37-.9-1.11-.9l-5.99.3c-.3,0-.45-.16-.45-.47,0-.57.1-1.16.28-1.76.03-.17.17-.27.43-.3.26-.03,1.13-.04,2.63-.04,1.74-.09,3.72-.32,5.96-.69,2.23-.37,4.03-.76,5.43-1.16.11-.05.3-.08.57-.08s.41.17.41.52-.2,1.22-.59,2.64c-.39,1.42-.81,2.68-1.24,3.8"/><path class="cls-1" d="m247.94,854.88l-1.55,5.92-36.53-.39c.32,0-.97.03-3.87.1-9.31.19-15.7.29-19.19.29l1.55-5.92,41.09.49c6.26.13,12.43-.03,18.5-.49"/><path class="cls-1" d="m609.44,739.5c.88.88,3.53,4.55,4.67,4.55h8.28c-2.33-2.33-4.66-4.64-6.99-6.98-1.41-1.41-4.19.34-5.99-1.43-2.93-2.94-5.86-5.88-8.79-8.8-.96-.98-6.62-5.25-6.62-6.64,0-1.25,5.07-5.06,5.94-5.92,3.13-3.14,6.26-6.27,9.39-9.39,1.69-1.7,4.59-.04,5.78-1.23,2.4-2.41,4.8-4.8,7.2-7.21h-7.93c-2,0-3.21,4.47-4.99,4.47h-7.93c-1.2,0-7.16.84-8.01,0-.75-.76,0-6.06,0-7.1v-8.84c0-1.63,4.45-3.02,4.45-4.65v-8.27c-2.34,2.33-4.66,4.66-6.98,6.96-1.42,1.43.34,4.21-1.45,6-5.1,5.11-10.21,10.21-15.32,15.32-5.08-5.07-10.16-10.15-15.26-15.23-1.67-1.69-.03-4.57-1.22-5.78-2.39-2.39-4.79-4.8-7.2-7.19v7.92c0,1.98,4.37,3.14,4.37,4.92v7.92c0,1.19.84,7.17,0,8.03-.75.74-6.03,0-7.09,0h-8.86c-1.58,0-2.94-4.39-4.55-4.39h-8.27c2.33,2.35,4.66,4.68,6.98,6.98,1.41,1.43,4.19-.32,5.99,1.45,2.89,2.9,5.8,5.78,8.69,8.7.97.96,6.55,5.17,6.55,6.53,0,1.27-5.07,5.09-5.94,5.94-3.13,3.12-6.25,6.26-9.39,9.39-1.68,1.69-4.58.04-5.77,1.23-2.4,2.41-4.8,4.8-7.2,7.2h7.93c2.01,0,3.2-4.47,4.98-4.47h7.95c1.18,0,7.16-.84,8,0,.75.75,0,6.06,0,7.11,0,2.96,0,5.9.01,8.86,0,1.61-4.47,3-4.47,4.63v8.29c2.33-2.34,4.67-4.67,6.99-7,1.41-1.41-.36-4.19,1.43-5.98,2.92-2.92,5.83-5.82,8.73-8.74.98-.98,5.21-6.57,6.61-6.59,1.25,0,5.09,5.1,5.97,5.99,3.14,3.14,6.29,6.28,9.44,9.43,1.68,1.69.04,4.59,1.24,5.78,2.4,2.39,4.8,4.8,7.19,7.2,0-4.1.98-7.41-1.96-10.37-.86-.85-2.58-1.88-2.58-3.16v-14.39c0-1.55.65-1.02,2.16-1.02,4.62,0,9.24-.02,13.85-.02h0Zm-51.89-2.71v-31.89c0-2.25,2.34-1.24,4.31-1.24h25.74c1.36,0,3.1-.72,3.1.84v24.25c0,1.2.85,7.21,0,8.05-.95.96-7.6,0-8.97,0h-24.18Z"/><path class="cls-1" d="m575.38,688.61c-3.81,0-2.72-1.14-2.72-4.78,0-1.61-1.1-9.23,0-10.35.27-.29,2.72-.23,2.72.29v14.84h0Z"/><path class="cls-1" d="m575.68,767.02c-3.79,0-2.72-1.15-2.72-4.78,0-1.61-1.1-9.23,0-10.35.27-.29,2.72-.21,2.72.29v14.84h0Z"/><path class="cls-1" d="m620.95,721.47h-14.5c-.97,0-1.2-2.19-.64-2.71,1.02-1.02,7.98,0,9.43,0h5.07c1.24,0,.64,1.67.64,2.71h0Z"/><path class="cls-1" d="m542.53,721.75h-14.5c-.96,0-1.19-2.16-.64-2.71,1.03-1,7.99,0,9.44,0h5.05c1.25,0,.65,1.7.65,2.71h0Z"/><path class="cls-1" d="m579.76,711.38c-.92.94-5.23,6.06-5.99,5.29-1.5-1.51-3.02-3.02-4.51-4.51-.82-.84-2.66-.29-2.68,1.16-.04,1.43,6.54,4.74,5.27,5.98-1.51,1.52-3.01,3.03-4.52,4.51-.82.82-.28,2.66,1.17,2.7,1.44.02,4.73-6.54,5.99-5.29,1.51,1.51,3.01,3.02,4.52,4.51.82.84,2.64.29,2.68-1.15.04-1.45-6.54-4.74-5.28-6.01,1.5-1.51,3.02-3.02,4.52-4.51,1.22-1.23-.04-1.55-1.16-2.7h0Z"/><path class="cls-1" d="m615.58,140.05c-.94-1.59-3.28-2.39-4.89-1.28-2.43,1.67-4.36,3.64-6.16,5.99-1.18,1.55-.24,4,1.29,4.9,1.83,1.06,3.71.26,4.89-1.29,1.01-1.31,2.23-2.49,3.59-3.41,1.6-1.12,2.33-3.12,1.28-4.9Z"/><path class="cls-1" d="m620.08,145.06c-1.49,1.57-2.97,3.16-4.48,4.73-3.21,3.33,1.84,8.39,5.07,5.06,1.49-1.57,2.97-3.17,4.48-4.72,3.2-3.33-1.85-8.42-5.07-5.08Z"/><path class="cls-1" d="m633.69,151.64c-1.82-1.06-3.74-.29-4.89,1.28-1.08,1.47-2.19,2.86-3.57,4.05-1.46,1.28-1.31,3.76,0,5.06,1.44,1.45,3.59,1.29,5.05,0,1.83-1.59,3.27-3.55,4.71-5.49,1.14-1.57.25-3.98-1.3-4.9Z"/><path class="cls-1" d="m638.21,158.6c-.8,1.47-1.73,2.84-2.83,4.11-3.06,3.43,1.98,8.51,5.06,5.06,1.5-1.71,2.88-3.55,3.95-5.55,2.18-4.09-4.01-7.7-6.18-3.62Z"/><path class="cls-1" d="m649.08,165.48c-1.25,1.27-2.56,2.42-4.07,3.39-3.88,2.47-.28,8.68,3.63,6.19,2.01-1.29,3.84-2.82,5.51-4.51,3.25-3.31-1.82-8.37-5.06-5.06Z"/><path class="cls-1" d="m657.96,172.93c-1.24,1.34-2.47,2.71-3.71,4.06-3.11,3.41,1.96,8.5,5.06,5.06,1.24-1.37,2.45-2.71,3.71-4.06,3.09-3.43-1.95-8.49-5.06-5.06Z"/><path class="cls-1" d="m667.69,177.34c-1.8,0-3.77,1.63-3.59,3.57.1.88-.01,1.04-.58,1.78-1.18,1.55-.23,4,1.29,4.9,1.83,1.08,3.72.26,4.89-1.29,1.18-1.55,1.77-3.45,1.56-5.39-.2-1.94-1.48-3.57-3.58-3.57Z"/><path class="cls-1" d="m681.25,186.41c-1.25-1.25-3.86-1.53-5.07,0-.87,1.14-1.66,2.35-2.53,3.45-1.2,1.55-1.51,3.57,0,5.07,1.24,1.26,3.85,1.55,5.06,0,.89-1.13,1.65-2.31,2.54-3.45,1.2-1.53,1.51-3.55,0-5.06Z"/><path class="cls-1" d="m687.94,191.43c-2.06-.55-3.67.7-4.41,2.49-.23.6-.8,1.06-1.2,1.55-1.25,1.49-1.47,3.59,0,5.06,1.28,1.29,3.81,1.49,5.07,0,1.26-1.51,2.3-2.86,3.05-4.7.74-1.81-.8-3.94-2.5-4.41Z"/><path class="cls-1" d="m693.01,197.76c-4.61,0-4.61,7.17,0,7.17s4.6-7.17,0-7.17Z"/><path class="cls-1" d="m604.97,132.87c-1.48-1.49-3.57-1.24-5.07,0-1.71,1.39-3.4,2.8-5.24,4.02-3.8,2.57-.23,8.76,3.61,6.19,2.36-1.58,4.52-3.37,6.7-5.15,1.5-1.25,1.28-3.8,0-5.06Z"/><path class="cls-1" d="m589.8,123.11c-2.93,1-5.31,2.59-7.47,4.78-3.24,3.29,1.82,8.35,5.05,5.07,1.28-1.31,2.55-2.33,4.3-2.94,4.33-1.49,2.49-8.39-1.89-6.9Z"/><path class="cls-1" d="m576.29,116.41c-1.84-1.06-3.73-.26-4.9,1.29-1.22,1.63-2.54,3.18-3.76,4.79-1.18,1.57-.25,4,1.27,4.9,1.85,1.06,3.74.29,4.92-1.29,1.2-1.61,2.54-3.17,3.76-4.8,1.16-1.55.25-3.98-1.28-4.9Z"/><path class="cls-1" d="m559.16,112.1c-1.73,1.82-3.23,3.82-4.73,5.86-1.17,1.55-.26,3.98,1.28,4.88,1.82,1.06,3.76.29,4.91-1.28,1.14-1.54,2.29-3,3.59-4.41,3.17-3.34-1.88-8.43-5.06-5.04Z"/><path class="cls-1" d="m543.02,110.27c-.79,1.27-1.46,2.63-2.44,3.76-1.28,1.47-1.47,3.61,0,5.06,1.3,1.31,3.77,1.49,5.06,0,1.4-1.61,2.44-3.41,3.54-5.23,2.43-3.94-3.76-7.53-6.16-3.59Z"/><path class="cls-1" d="m532.05,107.92c-2.01-.55-3.76.67-4.42,2.51-.34.92-.67,1.85-1.32,2.61-1.24,1.51-1.46,3.6,0,5.07,1.29,1.3,3.81,1.51,5.07,0,1.48-1.76,2.38-3.61,3.16-5.79.66-1.83-.72-3.92-2.49-4.41Z"/><path class="cls-1" d="m514.67,111.58c-.29.39-.85,1.38-.86,1.4-1.21,1.51-1.48,3.58,0,5.06,1.28,1.27,3.84,1.51,5.06,0,.29-.36.87-1.41.87-1.41,1.21-1.51,1.5-3.56,0-5.06-1.26-1.25-3.84-1.51-5.07,0Z"/><path class="cls-1" d="m502.97,113.25c-4.62,0-4.62,7.14,0,7.14s4.63-7.14,0-7.14Z"/><path class="cls-1" d="m759.38,219.55c1.28,1.47,3.76,1.3,5.06,0,1.46-1.45,1.28-3.59,0-5.06-1.43-1.65-3.08-3.08-4.49-4.76-1.28-1.49-3.78-1.31-5.08,0-1.45,1.47-1.25,3.58,0,5.06,1.44,1.67,3.09,3.11,4.52,4.76Z"/><path class="cls-1" d="m741.25,229.49c3.14,2.27,6.61,3.94,10.32,4.99,4.46,1.22,6.35-5.68,1.92-6.92-3.19-.86-5.97-2.31-8.63-4.25-1.6-1.14-3.98-.26-4.89,1.31-1.07,1.8-.31,3.74,1.28,4.88Z"/><path class="cls-1" d="m737.51,249.29c3.48.31,6.88.43,10.29-.49,4.45-1.21,2.56-8.11-1.92-6.92-2.75.76-5.55.51-8.37.24-1.94-.18-3.57,1.78-3.57,3.59,0,2.08,1.63,3.39,3.57,3.57Z"/><path class="cls-1" d="m746.35,267.46c4.59.35,4.57-6.82,0-7.15-3.95-.29-7.86.51-11.63,1.59-4.43,1.27-2.55,8.19,1.9,6.9,3.22-.94,6.36-1.57,9.73-1.35Z"/><path class="cls-1" d="m752.51,275.39c-1.04-1.8-3.13-2.1-4.9-1.29-2.64,1.24-5.42,2.1-8.14,3.12-1.82.7-3.05,2.39-2.5,4.41.49,1.74,2.58,3.19,4.4,2.49,3.33-1.25,6.65-2.35,9.87-3.84,1.76-.84,2.19-3.34,1.27-4.9Z"/><path class="cls-1" d="m754.78,289.66c-1.98,2.14-4.18,4.08-6.17,6.23-3.12,3.39,1.92,8.48,5.06,5.06,1.98-2.14,4.18-4.08,6.16-6.23,3.12-3.39-1.91-8.48-5.06-5.06Z"/><path class="cls-1" d="m768.95,309.83c2.77-2.49,3.8-6.1,4.2-9.66.21-1.96-1.79-3.59-3.57-3.59-2.13,0-3.37,1.63-3.59,3.59-.19,1.7-.8,3.41-2.1,4.6-3.45,3.08,1.62,8.13,5.05,5.06Z"/><path class="cls-1" d="m661.99,257.52c-1.57-.92-4.08-.49-4.9,1.29-.62,1.37-1.35,2.64-2.37,3.73-3.12,3.39,1.93,8.48,5.06,5.07,1.43-1.55,2.61-3.27,3.49-5.19.82-1.78.51-3.86-1.29-4.9Z"/><path class="cls-1" d="m645.78,257.17c-.72,1.35-1.59,2.62-2.31,3.98-2.21,4.04,3.95,7.66,6.16,3.61.74-1.35,1.61-2.62,2.33-3.98,2.21-4.05-3.97-7.66-6.18-3.62Z"/><path class="cls-1" d="m668.89,259.53c-4.61,0-4.61,7.16,0,7.16s4.61-7.16,0-7.16Z"/><path class="cls-1" d="m638.15,252.48c-1.52-.9-4.08-.49-4.89,1.29-.54,1.24-1.12,2.49-2.06,3.49-3.12,3.41,1.93,8.47,5.06,5.07,1.36-1.49,2.37-3.11,3.19-4.94.8-1.8.52-3.84-1.3-4.9Z"/><path class="cls-1" d="m621.03,252.4c-.92,1.08-1.63,2.31-2.54,3.39-1.25,1.49-1.46,3.59,0,5.06,1.29,1.28,3.8,1.49,5.06,0,.92-1.08,1.64-2.33,2.56-3.39,1.24-1.49,1.46-3.59,0-5.07-1.31-1.29-3.82-1.51-5.08,0Z"/><path class="cls-1" d="m606.72,250.21c-.77.64-1.49,1.26-2.13,2.02-1.27,1.5-1.46,3.62,0,5.07,1.28,1.31,3.8,1.49,5.05,0,.65-.75,1.37-1.39,2.14-2.02,1.52-1.25,1.29-3.8,0-5.06-1.47-1.47-3.55-1.25-5.06,0Z"/><path class="cls-1" d="m593.93,247.19c-2.02-.55-3.7.69-4.4,2.51-.25.61-.58,1.13-1.07,1.58-3.36,3.18,1.71,8.23,5.08,5.06,1.4-1.33,2.2-2.96,2.89-4.74.69-1.81-.78-3.92-2.51-4.41Z"/><path class="cls-1" d="m576.97,246.52c-.78,1.23-1.6,2.37-2.63,3.43-3.15,3.37,1.9,8.44,5.07,5.06,1.42-1.49,2.64-3.14,3.74-4.9,2.49-3.9-3.72-7.5-6.18-3.6Z"/><path class="cls-1" d="m561.18,244.52c-1.79,2.06-3.53,4.17-5.01,6.45-2.5,3.9,3.7,7.49,6.19,3.61,1.15-1.8,2.49-3.39,3.88-5,1.28-1.47,1.46-3.61,0-5.07-1.3-1.31-3.78-1.47-5.06,0Z"/><path class="cls-1" d="m546.21,243.91c-.88,1.39-1.83,2.73-2.63,4.21-2.19,4.06,4,7.68,6.19,3.61.78-1.47,1.74-2.82,2.62-4.23,2.49-3.92-3.71-7.49-6.18-3.59Z"/><path class="cls-1" d="m530.32,243.56c-.26.84-.56,1.74-1.12,2.41-1.25,1.51-1.46,3.59,0,5.08,1.29,1.27,3.83,1.49,5.07,0,1.38-1.7,2.29-3.51,2.97-5.6,1.39-4.39-5.51-6.27-6.92-1.9Z"/><path class="cls-1" d="m519.63,241.86c-1.82-1.04-3.76-.27-4.89,1.31-.96,1.29-1.91,2.61-2.88,3.92-1.16,1.57-.27,3.98,1.28,4.88,1.81,1.08,3.74.28,4.9-1.27.95-1.3,1.91-2.63,2.88-3.94,1.14-1.57.26-3.98-1.29-4.9Z"/><path class="cls-1" d="m499.6,242.92c-1.18,1.37-2.09,2.92-3.13,4.39-1.12,1.59-.29,3.96,1.28,4.88,1.79,1.06,3.79.33,4.9-1.28.69-.96,1.25-2.04,2.03-2.92,1.25-1.5,1.47-3.61,0-5.07-1.31-1.3-3.8-1.49-5.07,0Z"/><path class="cls-1" d="m482.92,248.83c-.59,1.1-1.31,2.1-1.98,3.16-2.49,3.9,3.7,7.48,6.18,3.59.68-1.04,1.39-2.04,1.99-3.14,2.18-4.06-4-7.68-6.19-3.61Z"/><path class="cls-1" d="m471.87,251.87c-2.09,0-3.39,1.63-3.58,3.58-.05.66-.19,1.16-.41,1.79-.67,1.82.74,3.92,2.49,4.39,2.01.58,3.75-.65,4.41-2.49.43-1.18.55-2.45.66-3.69.19-1.94-1.77-3.58-3.58-3.58Z"/><path class="cls-1" d="m458.41,258.4c-4.62,0-4.62,7.17,0,7.17s4.61-7.17,0-7.17Z"/><path class="cls-1" d="m848.73,282.78c4.26-.88,10.18-3.23,12.03-7.56.76-1.79.55-3.84-1.28-4.9-1.52-.9-4.12-.51-4.9,1.27-1.1,2.59-5.15,3.74-7.74,4.29-4.54.92-2.62,7.82,1.89,6.9Z"/><path class="cls-1" d="m858.34,283c-2.74,3.27-6,5.31-10.27,6.04-4.53.78-2.61,7.68,1.92,6.9,5.29-.92,9.98-3.79,13.42-7.9,2.96-3.51-2.09-8.6-5.07-5.05Z"/><path class="cls-1" d="m855.94,301.38c-4.59.17-4.63,7.33,0,7.15,6.56-.23,11.98-3.45,14.99-9.36,2.1-4.08-4.07-7.71-6.19-3.61-1.86,3.65-4.67,5.68-8.8,5.82Z"/><path class="cls-1" d="m716.36,352.94c1.84,0,3.08-1.35,4.36-2.45,1.47-1.29,1.31-3.76,0-5.07-1.07-1.07-2.5-1.22-3.78-.71-.37.15-.75.22-1.15.21-2.15-.02-4.36,1.69-3.57,4.38.58,1.96,1.92,3.63,4.14,3.63Z"/><path class="cls-1" d="m744.71,365.66c1.24,1.51,3.78,1.29,5.06,0,1.46-1.49,1.24-3.55,0-5.06-.18-.23-.37-.45-.57-.68-1.24-1.51-3.78-1.27-5.06,0-1.48,1.47-1.24,3.57,0,5.06.17.23.38.45.56.68Z"/><path class="cls-1" d="m778.99,373.11c1.57,1.16,3.82.37,4.73-1.19.27-.45.44-.83.63-1.48.5-1.96-.8-4.33-3.38-4.6-.67-.08-2.8.02-3.63,1.9-.99,2.22-.08,4.08,1.66,5.37Z"/><path class="cls-1" d="m817.86,374.37c.48-.17.99-.32,1.48-.44,2.37-.6,4.1-3.7,1.85-5.98-1.72-1.74-4.37-1.45-6.25-.13-1.55,1.14-2.33,3.09-1.26,4.92.78,1.33,2.67,2.15,4.18,1.63Z"/><path class="cls-1" d="m668.76,366.52c-4.89-2.11-14.08-4.78-17.6-.84-1.06,1.21.84,9.51,4.24,8.58,3.41-.92,14.92-.47,16.08-1.38,1.16-.94-1.66-5.9-2.72-6.35Z"/><path class="cls-1" d="m581.1,359.09c-1.47-.12-3.2,8.21,0,8.64,3.21.43,18.4.74,20.02,0,1.2-.54.62-3.98.24-5.72-.13-.6-.64-1.05-1.26-1.11-6.34-.6-12.66-1.2-19.01-1.8Z"/><path class="cls-1" d="m510.74,343.57c-.33-.12-.7-.09-1,.09s-.52.48-.57.83c-.42,2.53-1.04,7.71.64,9.1,2.29,1.86,16.31.48,17.94,0,1.27-.36.38-3.46-.08-4.82-.13-.39-.46-.68-.86-.78-5.16-1.22-10.91-2.54-16.07-4.42Z"/><path class="cls-1" d="m429.09,356.74c4.38,0,16.59-4.21,18.74-7.39.92-1.38,1.05-2.41.89-3.13-.17-.8-.89-1.36-1.71-1.35-8.1.12-15.49,1.24-23.01,2.81-3.51.71.72,9.06,5.09,9.06Z"/><path class="cls-1" d="m383.77,374.15c-.21-.23-.52-.37-.83-.37s-.62.13-.84.36c-4.45,4.71-8.75,6.17-11.81,12.2-.63,1.23,3.5,10.43,5.81,6.72,2.34-3.72,10.7-12.99,10.46-14.74-.15-1.16-1.76-3.05-2.79-4.17Z"/><path class="cls-1" d="m394.87,405.85c-.39-.24-.89-.14-1.17.22-2.77,3.7-5.69,7.12-9.73,9.33-1.06.59,2.18,7.46,2.59,8.33.53,1.1,3.82-.68,6-2.77,2.2-2.08,9.31-8.38,7.93-10.54-1.07-1.65-4.22-3.7-5.63-4.57Z"/><path class="cls-1" d="m455.68,379.74c0-1.24-.98-2.26-2.22-2.29-4.68-.13-9.38.68-13.6,1.61-.69.15-1.17.79-1.13,1.5.15,2.52.78,8.18,3.46,10.02,2.88,1.97,10.18-3.69,12.64-5.73.52-.43.82-1.07.83-1.75v-3.35Z"/><path class="cls-1" d="m413.86,439.09c-.52-.27-1.14-.21-1.6.15-2.32,1.81-5.1,3.61-7.45,5.44-.24.18-.39.45-.42.75-.04.3.05.6.24.83,1.5,1.88,5.08,5.96,6.6,4.1,1.93-2.43,7.8-4.79,8.17-6.68.3-1.42-3.72-3.66-5.54-4.59Z"/><path class="cls-1" d="m511.03,374.54c-.68-.16-1.36.24-1.55.91-.69,2.47-1.95,7.93.36,8.16,3,.26,16.53.86,17.6,0,.85-.7-.33-3.51-.89-4.72-.16-.35-.47-.61-.84-.71-4.44-1.17-9.54-2.41-14.68-3.65Z"/><path class="cls-1" d="m525.52,405.75c0-.39-.31-.7-.7-.7-2.63-.03-11.6.07-14.27.04-.19,0-.37.07-.5.21s-.2.32-.2.5l.16,5.53c.01.45.39.81.84.8,2.15-.05,8.16-.3,13.05-1.58.93-.25,1.63-1.03,1.62-1.99,0-.63,0-1.98,0-2.81Z"/><path class="cls-1" d="m598.1,389.91c1.74-.09-.02-4.29-1.01-6.39-.34-.72-1.04-1.21-1.83-1.28-3.59-.34-6.59-.63-9.58-.91-1.03-.1-3.58,7.99-2.05,8.01,1.55.04,12.16.67,14.47.57Z"/><path class="cls-1" d="m588.55,405.04c-3.16.06-2.41,6.84-1.36,7.39,1.33.75,6.48.19,9.25.03,1-.06,1.92-.6,2.46-1.45.76-1.21,1.63-2.92,1.36-4.1-.47-2-8.59-1.94-11.71-1.86Z"/><path class="cls-1" d="m655.4,392.16c-1.31-.13-3.41,7.86-1.31,8.58,2.07.69,13.68-.7,16.24-1.64,1.88-.67-.25-3.89-1.53-5.56-.47-.62-1.23-.96-2.01-.91-3.84.25-7.61-.1-11.39-.47Z"/><path class="cls-1" d="m668.6,417.74c-.73-.03-6.5-.01-8.8,0-.59,0-1.15.31-1.46.8-.81,1.27-2.23,3.61-1.72,3.78.72.24,8.48,1.23,10.32.1,1.87-1.15,2.59-4.64,1.66-4.68Z"/><path class="cls-1" d="m427.12,474.13c-.33.17-.57.46-.69.81s-.08.73.09,1.06l1.58,3.07c.24.46.67.78,1.18.86s1.03-.07,1.4-.43l3.65-3.47c.83-.79,1.02-2.03.46-3.03l-1.62-2.92c-.16-.29-.47-.47-.8-.48s-.64.16-.82.45c-.96,1.56-2.36,3.02-4.43,4.08Z"/><path class="cls-1" d="m465.93,407.98c-.67-.69-1.56-1.11-2.52-1.19-.78-.07-1.56.03-2.3.28-4.37,1.47-10.24,5.8-10.24,6.43,0,.72,4.88,10.46,6.76,9.51,1.85-.92,9.73-7.18,11.14-9.27.97-1.48-1.36-4.25-2.84-5.77Z"/><path class="cls-1" d="m1080.03,501.62c-6.43-19.99-120.41-42.47-121.55-42.68-6.32-1.18-12.68-1.78-18.89-1.78-15.22,0-27.73,3.53-37.78,6.35-9.02,2.55-16.65,4.57-22.46,3.41-10.19-2.04-13.99-23.87-17.05-41.43-1.24-7.16-2.41-13.94-3.96-19.17-4.12-14.01-12.5-27.59-17.48-35.69-1.47-2.39-2.98-4.84-3.27-5.58-1.12-2.86-2.62-6.76-.21-22.74.88-5.76,10.66-9.78,22-14.44,14.18-5.84,31.85-13.11,45.07-28.09,5.65-6.37,11.9-24.46,11.9-31.92,0-1.18-.31-2.75-.84-4.57-.67-5.33-3.74-11.07-6.71-16.15-2.49-5.1-5.23-10.31-7.64-14.72-2.05-4.27-4.16-8.44-5.26-10.56.04-6.84-3.64-17.42-18.5-20.32-3.83-.76-9.05-1.94-15.07-3.33-22.25-5.08-55.87-12.78-83.87-13.28h-1.06c-12.76,0-25.13,3.95-36.86,11.77-.19.13-.45.12-.64-.02-6.78-5.28-14.44-12.94-23.13-21.65-29.45-29.5-73.96-74.12-152.87-92.88-9.66-2.31-19.28-3.47-28.61-3.47-29.25,0-52.02,11.8-59.38,23.44-2.71,4.27-3.27,8.52-1.64,11.97,5.12,10.78,20.94,16.33,36.27,21.71,3.8,1.35,7.58,2.65,11.15,4.07,9.75,3.78,17.98,11.23,28.38,20.66,15.74,14.29,37.3,33.86,77.04,51.15,17.43,8.35,40.06,12.6,67.27,12.6,8.11,0,15.09-.36,20.53-.69.03,0,.06.02.08.04s.01.06,0,.09c-5.62,6.84-8.36,12.06-9.64,15.07-.08.18-.26.3-.45.31-.54.01-1.16.01-1.86.01-5.47,0-14.91-.53-28.77-3.05-6.51-1.18-16.03-3.63-28.11-6.74-28.99-7.45-72.83-18.74-115.69-22.15-3.12-.25-6.33-.37-9.51-.37-43.1,0-85.95,22.56-102.48,44.37-5.72,7.55-7.87,14.7-6.21,20.62,5.8,20.63,65.44,29.07,126.03,35.97l8.9,1.02c8.49,1,17.79,1.49,27.62,1.49,31.68,0,64.22-5.19,77.35-12.35,5.9-3.21,12.56-8.44,19.63-13.98,9.81-7.71,20.85-16.37,27.99-17.54.23-.04.45.11.49.34,3.23,16.66,13.52,27.6,21.19,35.74,3.89,4.14,7.91,8.43,7.66,10.49-.91,7.43-19.17,27.67-45.76,33.2-5.64,1.17-12.36,1.78-20,1.78-26.3,0-63.16-7.25-98.58-19.38-29.93-10.25-70.58-13.9-98.66-13.9-17.57,0-31.41,1.43-37.96,3.92-6.03,2.28-12.03,3.43-17.85,3.43-6.98,0-13.57-1.71-18.12-4.74-1.87-1.24-2.98-3.21-3.32-5.91-.11-.9.03-1.81.4-2.63,2.32-5.11,3.71-13.09-2.51-17.85-2.91-2.23-6.57-2.57-9.75-1.45-.58-1.77-1.96-4.04-5.29-5.82-1.54-.8-3.26-1.21-5.14-1.21-10.54,0-24.74,13.84-25.68,29.26-1.93,20.52,13.93,31.28,27.25,35.71-6.16,4.18-15.36,11.64-25.9,24.16-8.32,9.89-13.89,27.91-15.73,33.83-.21.67-.36,1.14-.47,1.41-1.35,3.77-6.51,16.05-16.72,16.05-1.11,0-2.29-.14-3.48-.43-2.93-.72-5.62-1.41-8.21-2.08-10.47-2.72-19.52-5.07-34.65-5.07-2.87,0-5.93.1-9.11.26-1.23.06-2.48.11-3.76.11-24.76,0-55.16-11.74-63.76-24.65-3.23-4.84-5.74-13.49-8.4-22.66-5.7-19.58-12.13-41.78-29.95-41.86-7.26,0-12.76,2.51-16.31,7.43-6.86,9.49-5.92,27.07,2.86,53.74,8.6,26.11,27.23,43.1,56.99,51.92,8.27,2.45,16.46,2.63,24.36,2.84,1.45.04,2.9.06,4.33.12-8.09,1.23-16.8,2.9-25.35,4.51-17.67,3.37-34.36,6.57-43.28,5.72-20.56-1.94-26-3.04-41.11-19.5-12.18-13.23-33.09-19.27-47.35-19.27-5.32,0-12.5.85-16.55,4.88-1.43,1.43-2.99,4.04-2.21,8.35,2.61,14.58,31.66,40.94,58.66,53.25,20.71,9.43,38.05,11.48,62.05,14.33,15.11,1.78,32.24,3.82,55.06,8.09,28.53,5.31,54.97,15.03,80.56,24.42,28.03,10.29,57,20.91,87.86,25.28,4.74.67,9.54,1,14.26,1,34.57,0,62.33-18.15,84.65-32.73,11.16-7.31,21.73-14.21,31.45-17.64,16.09-7.39,32.69-10.95,50.76-10.95,32.36,0,65.95,11.37,104.87,24.56,43.77,14.84,93.36,31.63,154.83,36.98,4.53.36,8.94.25,13.4-.3.25-.03.51-.01.75.06,6.81,1.99,43.94,12.92,57.08,20.19,3.61,2,7.33,5.16,11.65,8.8,12.66,10.74,30.02,25.42,64.35,27.73,4.64.31,9.07.47,13.17.47,29.96,0,46.24-8.6,48.35-25.58.38-2.88-.49-5.62-2.5-7.9-7.33-8.29-29.22-9.19-38.29-9.19-5.29,0-10.44.28-14.85.8-.22.04-.45.04-.69.04-12.36,0-48.53-27.14-72.19-47.25,17.6-11.07,35.12-20.46,54.44-20.46l1.4.02,1.01-.02c16.12,0,25.44,7.6,35.31,15.62,7.84,6.39,15.96,12.98,27.34,14.93,2.68.45,5.47.67,8.3.67,15.73,0,32.39-7.23,39.66-17.17,3.32-4.55,4.32-9.27,2.93-13.64Zm-183.32-262.42c6.47,12.19,12.33,24.89,12.51,28.66.09,1.99-1.78,2.68-3.33,3.43-1.74.86-3.25,1.29-4.53,1.29-.83,0-3.73.15-4.51-4.03l-.55-2.7c-.22-1.05-1.02-1.89-2.06-2.16l-1.58-.4c-.63-.16-1.29.02-1.76.47s-.66,1.11-.53,1.74c.85,3.94,2.35,8.76,2.35,8.76-1,1.22-3.61,3.89-6.44,4.38-1.43.24-2.72.37-3.9.37-5.37,0-5.9-2.58-6.11-3.68-.99-4.98-2.46-15.68-3.7-25.07,12.98-2.13,20.83-7.28,24.15-11.07Zm-6.11-11.09c1.07,1.88,2.18,3.86,3.29,5.92-7.06,6.8-15.49,9.32-22.07,10.45-.47-3.66-.86-6.8-1.1-8.84,12.02-.98,17.58-5.88,19.87-7.53Zm-164,69.5c-7.5-7.96-17.75-18.86-19.84-35.16l-.12-.97c-.12-.92-.81-1.66-1.71-1.85l-.98-.2c-.85-.19-1.73-.27-2.66-.27-9.48,0-21.34,9.33-33.92,19.19-6.83,5.37-13.27,10.41-18.64,13.33-12.02,6.56-43.81,11.5-73.95,11.5-9.56,0-18.57-.49-26.79-1.46l-8.91-1.02c-26.64-3.05-80.91-9.21-106.41-20.07,5.04-14.44,26.99-38.81,81.51-43.24,54.89-4.5,159.68,19.03,160.72,19.27,1.52.35,3.08-.64,3.42-2.16.36-1.55-.6-3.09-2.15-3.43-4.33-.98-106.69-23.91-162.47-19.39-56.65,4.61-80.09,29.73-86.19,46.47-4.56-2.54-7.59-5.27-8.43-8.27-1.02-3.65.76-8.78,5.04-14.39,15.14-19.99,56.45-41.57,96.8-41.57,3.01,0,6.02.12,8.95.37,42.23,3.35,85.72,14.54,114.49,21.95,12.21,3.13,21.83,5.6,28.6,6.84,14.38,2.61,24.27,3.16,30.04,3.16,3.29,0,4.97-.18,5.15-.2l1.35-.18c.67-.09,1.22-.58,1.39-1.24l.33-1.3c.02-.08,2.15-8.21,14.78-21.27l5.93-6.14-8.55.12c-1.51.02-3.74.16-6.61.35-5.64.33-13.34.8-22.42.8-26.13,0-47.74-4-64.32-11.96-38.78-16.89-58.99-35.21-75.22-49.95-10.95-9.93-19.59-17.77-30.57-22.03-3.64-1.41-7.51-2.78-11.39-4.15-10-3.51-20.19-7.12-26.6-11.88,22.24-13.39,61.19-20.97,103.63-.63,43.7,20.95,126.66,92.35,127.5,93.07.54.47,1.2.69,1.86.69.8,0,1.61-.33,2.18-.98,1.02-1.2.89-3.02-.31-4.04-3.41-2.96-84.38-72.63-128.76-93.9-45.3-21.7-87.01-12.95-110.31,1.71-.51-.67-1.03-1.35-1.37-2.06-.55-1.16-.11-3.02,1.21-5.12,4.92-7.78,23.77-20.14,53.38-20.14,8.78,0,17.85,1.12,26.97,3.29,76.94,18.29,120.6,62.05,149.48,90.99,9.91,9.95,18.48,18.52,26.35,24.14l1.47,1.06c.36.26.84.26,1.2,0l1.47-1.06c11.2-8.06,23.04-12.15,35.16-12.15l.91.02c27.27.45,60.47,8.04,82.43,13.09,6.08,1.39,11.35,2.59,15.29,3.37,11.55,2.27,12.76,10.03,12.76,13.31-.58.61-8.38,7.45-24.21,8.19-8.11.38-67.79-8.62-68.74-8.7-16.37-1.53-30.5,10.39-32.01,26.48-1.51,16.13,10.36,30.48,26.49,32.02.94.08,1.84.12,2.78.12,15.22,0,27.8-11.43,29.23-26.62.73-7.8-1.62-15.44-6.63-21.48-.62-.73-1.27-1.45-1.94-2.1,16.74,2.49,41.68,6.03,50.05,6.03.38,0,.7-.02,1.02-.02.05,0,.09-.02.13-.02.86,7.13,3.96,32,5.69,40.71.61,3.11,2.94,8.31,11.72,8.31,1.5,0,3.17-.17,4.89-.47,5.48-.96,9.02-5.27,10.14-6.78,2.75,1.21,6.2.96,10.03-.68-2.03,6.9-5.45,15.03-8.32,18.26-12.13,13.74-28.93,20.66-42.44,26.19-13.01,5.35-23.36,9.72-25.84,18.26-2.04.22-5.49.49-10.86.49-9.62,0-21.65-.8-35.79-2.35-29.97-3.29-44.49-15.78-48.95-20.44.44-1.18.78-2.3.92-3.35.67-5.41-3.84-10.21-9.54-16.28Zm84.68-62.11c4.01,4.86,5.91,11.01,5.31,17.3-1.22,12.97-12.6,22.54-25.74,21.32-2.39-.23-6.96-.79-12.94-5.43-5.76-4.82-9.13-12.29-8.38-20.33,1.14-12.21,11.25-21.42,23.5-21.42s17.45,7.62,18.25,8.57Zm-78.58,86.8c6.18,5.98,21.53,17.46,50.88,20.68,14.33,1.57,26.57,2.37,36.38,2.37,4.43,0,7.6-.16,9.88-.37-.47,3.59-.71,6.62-.8,9.13-4,1.12-12.81,3.02-26.64,3.02-8.08,0-16.78-.66-25.85-1.94-28.44-4.05-47.37-15.6-54.58-20.7,4.64-4.07,8.29-8.3,10.73-12.19Zm92.75,58.68c-1.32,1.53-3.23,2.19-5.88,1.92-12.22-1.17-15.03-15.07-15.66-20.48,10.5-.1,19.88-1.57,24.76-2.65,1.17,7.05.54,16.82-3.21,21.21Zm-27.16-18.68c-.29,3.12-1.43,9.47-5.76,13.48-3,2.75-7.17,3.89-12.33,3.41-4.87-.47-8.2-2.14-9.88-4.98-2.3-3.9-1.38-9.33-.44-12.7.21-.78.5-1.47.67-1.9,1.73.31,3.44.62,5.24.86,7.86,1.12,15.33,1.67,22.51,1.84Zm-32.99-3.78c-.09.31-.18.55-.37.94-2.18,5.25-8.09,15.58-20.1,12.47-3.69-.96-6.11-2.78-7.42-5.57-2.5-5.33-.44-12.76.93-16.56,7.32,3.27,16.39,6.44,26.96,8.72Zm-52.17-17.28c1.59-1.04,3.1-2.14,4.56-3.25,2.78,2.08,7.85,5.5,15.03,9.13-3.31,3.86-9.15,9.44-14.75,10.23-2.41.32-4.6-.25-6.61-1.82-1.95-1.56-2.89-3.25-2.89-5.21.04-3.02,1.13-6.71,4.65-9.09Zm-571.84,44.17c-9.87-29.93-7.55-42.27-3.86-47.35,2.18-3.02,5.64-4.47,10.62-4.47,12.39.04,18.05,19.52,23.02,36.71,2.82,9.72,5.49,18.89,9.33,24.63,2.02,3.04,4.84,5.88,8.17,8.49-4.81,7.58-10.86,14.11-18.49,18.89-13.97-8.76-23.55-20.91-28.81-36.9Zm33.89,39.84c7.13-4.98,13.02-11.39,17.74-18.7,3.89,2.53,8.31,4.8,13.03,6.82-1.92,7.22-4.54,12.78-10.63,19.78-8.5-2.5-13.29-4.27-20.14-7.9Zm33.69,9.78c-2.58-.14-5.15-.37-7.72-.74,2.03-2.51,3.88-5.13,5.4-7.92,3.5.43,5.81,2.01,6.31,3.88.59,2.19-2.66,4.42-4,4.78Zm6.93-13.13c-2.76,1.64-6.48-.12-7.01-.33.84-2.02,1.55-4.12,2.14-6.24,2.49.92,5.04,1.77,7.64,2.53-.49,1.61-1.24,3.13-2.76,4.04Zm-43.6,36.4c1.25,2.27,2.15,4.8,1.34,7.37-.82,2.59-4.21,3.65-7,4.21-.03-2.22-.26-4.49-.85-6.82-.32-1.29-.69-2.58-1.23-3.72,2.44-.28,5.05-.65,7.74-1.04Zm-38.25,24.77c-9.38-1.96-18.23-4.65-27.98-9.09-26.51-12.06-52.62-36.91-54.62-48.02-.13-.7-.17-1.66.23-2.04,1.77-1.78,6.09-2.82,11.54-2.82,13.17,0,31.86,5.84,42.12,16.97,13.21,14.4,20.72,18.35,33.81,20.38,1.47,9.02.59,17.01-5.1,24.62Zm19.42,2.88c-5-.51-9.34-1.11-13.7-1.91,5.7-8.38,6.01-16.31,4.89-24.76,1.73.35,7.75,1.18,14.51.81,5.38,12.16-.72,22.07-5.7,25.86Zm16.35,2.22c-1.28-.14-2.58-.3-3.8-.45-2.05-.23-3.95-.47-5.89-.71,2.83-3.08,4.77-6.62,5.74-10.49,2.54.88,4.93,2.19,6.33,4.53,1.57,2.58-.45,5.25-2.37,7.13Zm767.7,95.31c3.2-3.27,9.62-1.9,13.78-.55-2.54,3.96-5.4,7.68-8.71,10.98-2.62-2.08-8.51-6.92-5.06-10.43Zm46.05-7.57c4.06-.47,8.97-.74,13.86-.74,16.37,0,29.33,2.67,32.95,6.8.86.94.88,1.69.8,2.28-.6,4.8-2.43,19.38-41.31,19.38-3.92,0-8.22-.17-12.7-.47-2.17-.14-4.23-.35-6.25-.59,5.43-8.21,9.09-17.52,12.64-26.67Zm-19.28-5.97c5.13,2.74,9.84,4.72,13.73,5.58-3.56,9.08-7.4,18.19-13.06,26.17-6.37-1.14-11.97-2.74-16.97-4.67-.23-.1-.43-.23-.61-.33,7.28-7.64,12.48-17.21,16.88-26.75h.04Zm-5.4-1.08c-1.22,2.61-2.53,5.24-3.91,7.82-2.43-1.78-6.5-5.08-5.74-8.05.64-2.51,7.6-.43,9.66.23Zm15.38-74.16c-2.43-.37-4.97-.64-7.7-.64l-1,.02-1.42-.02c-22.73,0-42.44,11.41-62.3,24.16l-.04.02-4.19,2.67c-6.7,4.31-19.61,11.96-23.49,14.24-.62.37-.84,1.17-.47,1.8l.03.05c.43.75,1.35,1.07,2.16.75,5.26-2.07,23.7-9.42,27.67-12.09,7.28,6.24,28.48,23.99,47.97,36.65-3.19.14-6.07,1.3-7.25,4.57-1.26,3.47.41,6.82,2.85,9.63-4.98-.65-10.18-.06-13.71,3.55-2.54,2.62-2.71,5.6-1.7,8.46-5.63-3.75-10.36-7.74-14.7-11.43-4.61-3.88-8.58-7.25-12.83-9.6-15.11-8.35-57.82-20.58-59.66-21.09l-.18-.06c-.34-.11-.7-.15-1.05-.1l-.21.03c-4.34.6-8.71.74-12.97.41-60.59-5.27-109.75-21.93-153.13-36.63-39.51-13.4-73.63-24.95-107.16-24.95-19.12,0-36.71,3.8-53.42,11.48-10.23,3.59-21.14,10.72-32.7,18.29-22.64,14.78-48.3,31.57-80.75,31.57-4.39,0-8.84-.33-13.25-.96-30.13-4.23-57.47-14.27-86.42-24.89-25.87-9.5-52.59-19.32-81.71-24.75-18.02-3.35-32.93-5.39-45.49-6.94,1.77-2.74,2.59-5.92,1.35-9.29-.96-2.63-2.91-4.57-5.24-6.03,2.54-1.12,4.77-2.73,6.13-5.31,1.84-3.49,1.05-7.41-.5-10.9,5.86-.98,12.11-2.16,18.51-3.39,17.9-3.39,36.4-6.94,47.93-6.37l15.51.78-13.62-7.45c-9.31-5.06-19.42-5.43-29.27-5.67,1.21-1.66,1.83-3.65,1.39-6.04-.15-.8-.48-1.51-.89-2.21.25-.08.51-.16.75-.28,3.06-1.55,4.79-4.39,5.72-7.52,10.56,2.61,21.34,3.86,30.5,3.39,3.08-.18,6.01-.26,8.74-.26,14.21,0,22.44,2.14,32.86,4.84,2.64.69,5.37,1.41,8.34,2.1,1.74.41,3.46.63,5.13.63,14.86,0,21.69-15.89,23.42-20.79.11-.26.3-.86.55-1.67,4.64-14.96,9.46-25.52,14.38-31.36,17.5-20.81,31.12-26.77,31.24-26.81l11.87-4.96-12.72-1.84c-1.33-.2-32.46-5-30.11-30.28.75-12.09,12.12-22.71,18.61-22.71.71,0,1.32.13,1.82.41.74.39,1.69,1.02,1.86,1.78.2.78-.24,2.02-1.17,3.37l-.71,1.07c-.38.58-.51,1.29-.34,1.96s.62,1.24,1.23,1.56l1.14.6c1.41.75,3.15.46,4.25-.7,2.19-2.29,4.44-3.68,6.04-3.68.61,0,1.16.21,1.73.65,3.87,2.94-.25,10.49-.31,10.58-.28.49-.44,1.05-.46,1.62v.02c-.21,6.37,2.13,11.5,6.59,14.46,5.76,3.82,13.59,5.94,22.05,5.94,6.69,0,13.53-1.33,20.38-3.92,5.68-2.14,18.93-3.45,35.43-3.45,27.5,0,67.25,3.55,96.36,13.54,36.66,12.53,73.44,19.74,100.88,19.74,8.13,0,15.33-.65,21.45-1.92,6.82-1.41,13.21-3.76,19.03-6.6-.37,1.21-.62,2.45-.64,3.72-.04,3.61,1.66,6.9,4.91,9.45,3.17,2.5,6.78,3.47,10.66,2.93,4.64-.68,9.01-3.47,12.49-6.45-.56,4-.49,8.51,1.35,12.43,2.01,4.25,5.68,7.11,10.92,8.48,9,2.35,15.69-1,20.29-5.9.28,1.96.88,3.9,1.94,5.69,2.58,4.41,7.31,6.96,13.99,7.6,6.77.63,12.26-.98,16.44-4.8,2.17-2,3.73-4.39,4.83-6.81,2.86,7.37,8.37,14.41,18.11,15.33.53.04,1.04.06,1.55.06,4.57,0,7.34-2.02,8.89-3.84,2.69-3.17,3.65-7.82,3.82-12.44.43.69.89,1.47,1.45,2.35,4.82,7.82,12.89,20.91,16.72,34,1.43,4.84,2.57,11.42,3.78,18.38,3.62,20.73,7.7,44.21,22.66,47.19,1.67.33,3.4.49,5.25.49,6.27,0,12.87-1.86,20.54-4.04,10.13-2.84,21.62-6.08,35.85-6.08,5.79,0,11.71.56,17.58,1.66,7.92,1.49,16.17,3.2,24.5,5.12-.63.53-1.18,1.12-1.63,1.88-1.69,2.94-.67,6.41.91,9.37-3.25-.09-6.43.77-7.8,3.92-1.25,2.86-.48,5.82,1.03,8.5Zm9.74,2.45c-.45-.14-.91-.27-1.37-.43-2.1-2.08-4.79-4.92-4.67-8.04.07-2.23,6.62-.61,8.06-.25-.85,2.88-1.54,5.78-2.02,8.72Zm3.49-14.54c-1.08-1.53-3.73-4.92-2.76-7.02.95-2.05,5.24-1.69,7.2-1.58-1.57,2.94-2.95,5.95-4.13,9.06-.06-.09-.14-.22-.31-.45Zm11.31,22.68c-3.04-2.17-8.05-5.24-9.92-6.26.4-2.24,1.33-6.18,1.89-8.19,1.51-5.62,3.85-10.97,6.73-16.01,2.8.71,15.8,4.23,19.42,5.43-5.91,8.25-12.21,16.79-18.12,25.03Zm72.62,5.74c-5.03,6.92-18.64,14.27-33.91,14.27-2.42,0-4.83-.21-7.11-.6-9.55-1.61-16.58-7.35-24.04-13.41-1.1-.9-2.23-1.8-3.38-2.72,6.42-9.03,13.07-17.89,19.5-26.89,27.51,8.13,49.13,16.76,50.82,22.07.88,2.68-.55,5.43-1.89,7.27Z"/><path class="cls-1" d="m800.75,238.15c-2.04-1.44-2.88-1.5-6.45-2.72-6.54-2.25-13.72,2.55-15.7,7.88-1.38,3.72-2.15,12.62,3.7,15.97.72.78,1.56,1.52,2.5,2.12.93.6,3.88,2.19,7.63,2.19,4.2,0,8.99-1.43,12.9-6.02,2.25-2.61,3.17-5.64,2.68-8.74-.75-4.62-4.4-8.35-7.25-10.68Zm.23,15.7c-3.95,4.59-8.8,4.33-11.69,3.59-5.95-1.94-5.04-10.09-4.22-12.29,1.04-2.84,4.02-3.99,8.89-3.47,1.72.19,3.34.93,4.59,2.13,1.79,1.71,3.45,3.82,3.8,5.93.21,1.45-.21,2.74-1.36,4.1Z"/><path class="cls-1" d="m1101.63,594.04c0,4.66-1.6,8.63-4.81,11.86-3.23,3.22-7.18,4.86-11.84,4.86s-8.61-1.61-11.77-4.75c-3.14-3.13-4.71-7.05-4.71-11.7s1.63-8.59,4.89-11.79c3.28-3.16,7.38-4.76,12.21-4.76,4.52,0,8.3,1.59,11.38,4.71,3.12,3.14,4.64,6.99,4.64,11.57Zm-2.05-.13c0-3.92-1.45-7.35-4.33-10.25-2.92-2.87-6.31-4.3-10.26-4.3s-7.19,1.48-10.11,4.51c-2.88,3.01-4.33,6.49-4.33,10.44s1.38,7.42,4.22,10.32c2.79,2.93,6.16,4.39,10,4.39s7.4-1.53,10.34-4.52c2.99-3.02,4.46-6.54,4.46-10.58Zm-4.97,7.79c0,.53-.26.98-.77,1.36-.52.35-1.12.51-1.89.51-1.57,0-2.8-.59-3.66-1.8-.51-.69-.8-1.93-.8-3.75-.07-1.19-.19-2.02-.38-2.48-.19-.45-.57-.84-1.18-1.17-.62-.31-1.62-.46-2.92-.46h-.61v5.29c0,1.63.03,2.5.13,2.56.1.11.62.15,1.47.15h.39c.42,0,.65.05.71.12.09.06.13.21.13.51,0,.43-.13.65-.32.73-.19,0-.83.01-1.86.01h-6.54c-.22,0-.34-.21-.34-.63s.16-.62.48-.62c1.31,0,1.99-.05,2.08-.13.11-.06.16-.96.16-2.7v-13.33c-.09-.22-.67-.27-1.83-.22h-.76c-.15,0-.26-.15-.26-.44,0-.59.14-.88.39-.88.26,0,.64,0,1.12.02.96.07,2.21.11,3.76.11h3.38c2.13,0,3.81.37,5.07,1.13,1.25.77,1.86,1.8,1.86,3.09,0,2.41-1.77,3.93-5.36,4.55v.17c1.82.35,3.08,1.04,3.88,2.03.77.98,1.12,2.41,1.09,4.23-.03,1.84.36,2.77,1.12,2.77.19,0,.26-.07.26-.19,0-.07-.03-.18-.09-.36-.03-.03-.06-.11-.06-.23,0-.69.41-1.04,1.15-1.04.67,0,1.02.36,1.02,1.1Zm-6.73-12.87c0-1.19-.31-2.01-.96-2.48-.57-.48-1.63-.71-3.17-.71-.7,0-1.05.04-1.18.11-.09.1-.16.37-.16.86v5.94h.41l.84-.04c1.5-.11,2.56-.42,3.2-.98.67-.53,1.02-1.42,1.02-2.69Z"/></svg>