<?xml version="1.0" encoding="UTF-8"?><svg id="Capa_1" xmlns="http://www.w3.org/2000/svg" viewBox="0 0 256 256"><defs><style>.cls-1{stroke-width:6px;}.cls-1,.cls-2{fill:none;stroke:#fff;stroke-miterlimit:10;}.cls-2{stroke-width:4px;}</style></defs><path class="cls-2" d="m143.39,175.15c6.98,0,12.93-6.64,12.93-12.93v-29.08c0-10.67-21.09-16.16-32.32-16.16s-32.32,5.48-32.32,16.16v29.08c0,6.29,5.94,12.93,12.93,12.93"/><path class="cls-2" d="m182.16,181.61c6.29,0,12.93-3.41,12.93-9.69v-29.08c0-10.68-18.98-16.16-29.08-16.16-1,0-2.09.05-3.23.16"/><path class="cls-2" d="m124,107.29c7.53,0,12.93-4.75,12.93-11.63v-5.82c0-6.88-5.39-11.63-12.93-11.63s-12.93,4.75-12.93,11.63v5.82c0,6.88,5.39,11.63,12.93,11.63Z"/><line class="cls-2" x1="182.16" y1="194.54" x2="182.16" y2="149.3"/><line class="cls-2" x1="143.39" y1="194.54" x2="143.39" y2="139.6"/><line class="cls-2" x1="104.61" y1="139.6" x2="104.61" y2="194.54"/><path class="cls-2" d="m169.24,116.98c7.53,0,12.93-4.75,12.93-11.63v-5.82c0-6.88-5.39-11.63-12.93-11.63s-12.93,4.75-12.93,11.63v5.82c0,6.88,5.39,11.63,12.93,11.63Z"/><path class="cls-2" d="m65.83,181.61c-6.29,0-12.93-3.41-12.93-9.69v-29.08c0-10.68,18.98-16.16,29.08-16.16,1,0,2.09.05,3.23.16"/><line class="cls-2" x1="65.83" y1="194.54" x2="65.83" y2="149.3"/><path class="cls-2" d="m78.75,116.98c-7.53,0-12.93-4.75-12.93-11.63v-5.81c0-6.89,5.39-11.64,12.93-11.64s12.93,4.75,12.93,11.64v5.81c0,6.88-5.39,11.63-12.93,11.63Z"/><path class="cls-2" d="m94.91,78.2c-7.53,0-12.93-4.75-12.93-11.63v-5.81c0-6.89,5.39-11.64,12.93-11.64s12.93,4.75,12.93,11.64v5.81c0,6.88-5.39,11.63-12.93,11.63Z"/><path class="cls-2" d="m153.08,78.2c-7.53,0-12.93-4.75-12.93-11.63v-5.81c0-6.89,5.39-11.64,12.93-11.64s12.93,4.75,12.93,11.64v5.81c0,6.88-5.39,11.63-12.93,11.63Z"/><circle class="cls-1" cx="128" cy="128" r="120.63"/></svg>