<?xml version="1.0" encoding="UTF-8"?><svg id="Capa_1" xmlns="http://www.w3.org/2000/svg" viewBox="0 0 256 256"><defs><style>.cls-1{fill-rule:evenodd;}</style></defs><path class="cls-1" d="m111.7,128.49v60.66c0,.87.71,1.58,1.58,1.58h22.53c.87,0,1.58-.71,1.58-1.58v-61.65h16.33c.82,0,1.51-.63,1.58-1.45l1.57-18.58c.08-.92-.65-1.71-1.57-1.71h-17.9v-13.18c0-3.09,2.5-5.59,5.59-5.59h12.59c.87,0,1.58-.71,1.58-1.58v-18.58c0-.87-.71-1.58-1.58-1.58h-21.27c-12.48,0-22.6,10.12-22.6,22.6v17.91h-11.26c-.87,0-1.58.71-1.58,1.58v18.58c0,.87.71,1.58,1.58,1.58h11.26v.99Z"/><path d="m128,4C59.63,4,4,59.63,4,128s55.62,124,124,124,124-55.63,124-124S196.37,4,128,4Zm108.1,124c0,59.6-48.49,108.1-108.1,108.1S19.9,187.61,19.9,128,68.39,19.9,128,19.9s108.1,48.49,108.1,108.1Z"/></svg>