<?xml version="1.0" encoding="UTF-8"?><svg id="Capa_1" xmlns="http://www.w3.org/2000/svg" viewBox="0 0 256 256"><path d="m191.29,88.07c-4.05,1.83-8.65,2.95-13.02,3.68,2.08-.35,5.06-4.11,6.29-5.63,1.87-2.32,3.38-4.96,4.25-7.81.11-.22.18-.5-.04-.67-.28-.11-.47-.05-.69.06-4.88,2.62-9.93,4.51-15.3,5.86-.45.11-.78,0-1.06-.28-.45-.5-.87-.98-1.34-1.37-2.26-1.92-4.68-3.43-7.41-4.54-3.59-1.46-7.51-2.08-11.37-1.83-3.76.24-7.45,1.3-10.79,3.05-3.34,1.75-6.33,4.18-8.7,7.11-2.46,3.03-4.27,6.61-5.2,10.41-.9,3.66-.82,7.29-.28,10.99.08.61.03.7-.53.61-21.02-3.13-38.44-10.65-52.58-26.76-.61-.7-.95-.7-1.45.05-6.19,9.28-3.19,24.18,4.54,31.5,1.03.98,2.09,1.95,3.23,2.84-.42.08-5.56-.47-10.15-2.84-.61-.39-.92-.16-.98.53-.06,1,.03,1.92.17,3.01,1.19,9.4,7.7,18.1,16.62,21.49,1.06.45,2.23.84,3.37,1.03-2.03.45-4.12.76-9.95.31-.73-.14-1,.22-.73.92,4.38,11.93,13.83,15.48,20.91,17.51.95.16,1.9.16,2.85.39-.06.09-.11.09-.17.17-2.35,3.58-10.49,6.24-14.28,7.57-6.89,2.41-14.4,3.49-21.69,2.77-1.17-.17-1.41-.16-1.73,0-.32.2-.04.48.33.78,1.48.98,2.98,1.84,4.52,2.68,4.63,2.45,9.45,4.4,14.5,5.8,26.05,7.19,55.4,1.91,74.96-17.53,15.36-15.26,20.74-36.31,20.74-57.38,0-.83.97-1.28,1.55-1.72,4-3,7.45-6.6,10.44-10.61.67-.9.91-1.7.91-2.03v-.11c0-.34-.24-.24-.76,0Z"/><path d="m128,4C59.63,4,4,59.63,4,128s55.62,124,124,124,124-55.63,124-124S196.37,4,128,4Zm0,232.1c-59.61,0-108.1-48.49-108.1-108.1S68.39,19.9,128,19.9s108.1,48.49,108.1,108.1-48.49,108.1-108.1,108.1Z"/></svg>