<?xml version="1.0" encoding="UTF-8"?><svg id="Capa_1" xmlns="http://www.w3.org/2000/svg" viewBox="0 0 256 256"><path d="m169.32,93.8c0,4.1-3.33,7.43-7.43,7.43s-7.43-3.33-7.43-7.43,3.33-7.43,7.43-7.43,7.43,3.33,7.43,7.43Zm-9.25,33.3c0,17.21-14,31.2-31.2,31.2s-31.2-14-31.2-31.2,14-31.2,31.2-31.2,31.2,14,31.2,31.2Zm-11.21,0c0-11.02-8.97-19.99-19.99-19.99s-19.99,8.97-19.99,19.99,8.97,19.99,19.99,19.99,19.99-8.97,19.99-19.99Zm43.17-25.07c0-21.02-17.04-38.06-38.06-38.06h-51.93c-21.02,0-38.06,17.04-38.06,38.06v51.94c0,21.02,17.04,38.06,38.06,38.06h51.93c21.02,0,38.06-17.04,38.06-38.06v-51.94Zm-12.49,51.36c0,14.44-11.7,26.14-26.14,26.14h-50.79c-14.44,0-26.14-11.7-26.14-26.14v-50.79c0-14.44,11.7-26.14,26.14-26.14h50.79c14.44,0,26.14,11.7,26.14,26.14v50.79Z"/><path d="m128,4C59.63,4,4,59.63,4,128s55.62,124,124,124,124-55.63,124-124S196.37,4,128,4Zm0,232.1c-59.6,0-108.1-48.49-108.1-108.1S68.4,19.9,128,19.9s108.1,48.49,108.1,108.1-48.49,108.1-108.1,108.1Z"/></svg>