<?xml version="1.0" encoding="UTF-8"?>
<svg id="Capa_1" data-name="Capa 1" xmlns="http://www.w3.org/2000/svg" viewBox="0 0 1200 1200">
  <defs>
    <style>
      .cls-1 {
        fill: #fff;
        stroke-width: 0px;
      }
    </style>
  </defs>
  <g>
    <path class="cls-1" d="m600.42,17.32L8.5,301.03v598.01l591.08,283.64,591.92-283.71V300.96c-54.47-26.13-515.08-247.17-591.08-283.64Zm567.66,296.88v571.51l-568.49,272.48L31.92,885.8V314.28h0S600.41,41.8,600.41,41.8l567.67,272.4h0Z"/>
    <path class="cls-1" d="m732.06,468.59c3,15.07,2.49,66.56,2.46,69.74-.08,9.24.19,18.53-6.63,26.34l37.39,25.69,27.2-19.22-20.1-15.72c.04-11.5-.19-82.22-.19-82.22l8.93-7.06,26.62,24.32,23.83-19.08-31.56-29.92-24.25,17.8-20.56-17.74-31.42,17s6.96,3.47,8.27,10.07Z"/>
    <path class="cls-1" d="m866.5,510.41c-.11,1.79-.52,12.96-.82,17.14-1.1,15.54-2.55,30.61,11.47,42.72,11.52,9.95,34.03,19.62,34.03,19.62,0,0,21.08-23.25,31.01-35.22,28.93-33.52,37.06-69.62,22.87-101.72-6.6-13.12-13-17-13-17l-29.36,17.89s9.94,9.22,12.8,13.53c19.68,27.83,14.57,62.89-14.99,95.6-2.14,2.37-4.79,5.47-4.79,5.47-6.91-1.46-12.12-6.04-14.99-15.53-4.48-14.77-1.79-77.47-1.84-82.54-.08-9.35-1.99-19.83-15.57-26.7l-.36-.17-28.63,15.95s3.62,2.68,5.61,4.67c8.99,8.96,7.25,34.25,6.57,46.3Z"/>
    <path class="cls-1" d="m91.89,388.04c10.16-3.98,21.6-3.68,31.83.17.73.27,1.45.56,2.17.84,4.3,1.67,8.72,3.4,17.01,4.43.97.12,1.97,0,2.86-.37,5.16-2.14,41.09-18.02,44.54-19.6,4.23-1.95,4.5-3.09,4.33-3.77-.2-.8-1.14-1.21-2.81-1.23-2.27-.03-13.56,3.16-14.78,3.15-.95-.01-2.01-.24-3.75-.61-.61-.12-21.67-4.85-24.62-5.57-4.99-1.21-16.64-4.32-22.59-1.67-34.31,15.75-59.81,26.64-59.81,26.64,0,0,8.5,1.99,11.64,2.33,2.07.22,6.21-1.1,9.45-2.72,1.57-.78,3.08-1.45,4.53-2.02Z"/>
    <path class="cls-1" d="m1017.69,476.04c31.01-2.17,42.43-6.54,45.78-8.21v19.54c-.73,1.16-6.53,9.68-23.87,17.06-26.57,11.26-39.49,26.28-39.49,45.91,0,21.7,14.07,36.53,39.62,41.72l.75.15.13-.7c.89-5.33,23.48-25.83,24.68-27.03,2.43,13.23,10.89,20.6,29.66,25.99l.83.24.08-.81c.54-4.72,11.49-15.18,18.75-22.1,3.47-3.31,5.97-5.71,6.64-6.77l.57-.89-1.11-.11c-12.53-1.24-17.56-7.22-17.99-21.33v-54.65c0-20.43-1.36-25.74-9-33.14-10.04-9.74-25.18-12.3-25.18-12.3l-.21.56c-6.27,16.6-21.66,26.8-41.27,27.38.26-1.51.26-2.41.26-3.51,0-7.44-5.72-12.44-14.24-12.44-7.53,0-14.14,5.48-14.14,11.72,0,3.8,1.44,7.23,4.07,9.68,3.33,3.08,8.35,4.49,14.66,4.06Zm45.73,68.15c0,12.21-3.41,17.43-11.39,17.43-9.66,0-13.77-7.72-13.77-25.81,0-16.05,4.07-24.22,15.02-30.17l2.09-1.25c4.87-2.95,6.5-3.92,8.06-5.67v45.47Z"/>
    <path class="cls-1" d="m232.68,650.5h-30.36c2.7,4.81,3.71,6.8,3.71,12.04v54.31c0,5.23-1.01,7.22-3.71,12.03h30.27c13.58,0,26.23-2.2,35.4-18.41,7.13-12.98,7.54-29.52.4-42.49-8.24-14.86-25.85-17.48-35.71-17.48Zm19.22,51.17c-1.61,5.97-6.03,13.61-12.97,15.6-3.83,1.15-10.57.72-14.28.51v-56.3c6.63-.31,16.19-1.67,22.43,5.85,6.63,8.06,7.03,26.38,4.82,34.33Z"/>
    <path class="cls-1" d="m290.26,728.87h47.8l4.79-15.75c-10.26,5.69-20.54,7.31-31.28,4.94v-21.25h3.75c6.63,0,10.74-.18,16.5,3.04v-16.41c-6.43,3.7-11.81,3.32-17.08,3.32h-3.17v-18.42c7.67-.84,19.59-1.61,27.35,5.41l-2.3-15.93h-46.45c3.25,4.84,3.56,7.58,3.64,12.14v46.77c0,6.16-.96,7.21-3.55,12.14Z"/>
    <path class="cls-1" d="m374.18,728.87h47.36l5.24-18.41c-12.38,7.74-16.49,6.38-30.18,6.38v-54.31c0-5.24,1.01-7.23,3.73-12.04h-26.15c2.82,4.81,3.82,6.8,3.82,12.04v54.31c0,5.23-1,7.22-3.82,12.03Z"/>
    <path class="cls-1" d="m457.44,711.51h23.52c2.5,6.17,5.66,10.82,1.54,17.36h26.11c-2.41-2.65-4.14-4.54-5.78-8.72l-24.19-62.34h-11.22l-25.23,62.23c-2.02,5.04-3.08,5.69-5.29,8.82h18.82c-4.12-6.26-1.06-11.09,1.72-17.36Zm11.93-35.21l9.62,26.32h-19.56l9.94-26.32Z"/>
    <path class="cls-1" d="m542.28,662.53v54.31c0,5.23-.99,7.22-3.8,12.03h26.15c-2.72-4.81-3.72-6.8-3.72-12.03v-23.96c8.64,0,11.86-.53,17.79,3.56v-17.69c-6.53,3.57-9.45,3.03-17.79,3.03v-20.3c8.45-.84,17.29-.41,25.54,6.91l-1.2-17.89h-46.76c2.82,4.81,3.8,6.8,3.8,12.04Z"/>
    <path class="cls-1" d="m660.53,728.87c-2.38-2.65-4.11-4.54-5.74-8.72l-24.1-62.34h-11.33l-25.35,62.23c-2.02,5.04-3.08,5.69-5.29,8.82h18.82c-4.14-6.26-1.05-11.09,1.72-17.36h23.71c2.49,6.17,5.64,10.82,1.54,17.36h26.01Zm-49.28-24.6l10.13-26.33,9.63,26.33h-19.76Z"/>
    <path class="cls-1" d="m675.37,657.82c2.21,4.55,2.3,7.11,1.82,12.53l-5.86,45.91c-.95,6.08-1.42,7.49-4.1,12.62h18.12c-3.17-5.88-3.17-7.69-2.39-13.66l4.41-32.72,19.29,46.39h4.51l18.81-46.11,4.23,32.64c.86,6.64.86,7.78-2.13,13.47h24.2c-2.21-4.65-2.8-6.93-3.36-10.16l-6.15-48.57c-.48-4.93-.1-7.59,2.41-12.33h-24.38c-.1,5.12-.38,6.26-2.59,11.86l-10.08,24.28-10.28-25.7c-1.81-4.65-2-6.36-2.1-10.44h-24.37Z"/>
    <path class="cls-1" d="m774.69,728.87h24.95c-2.59-4.36-3.55-6.17-3.55-10.9v-49.25c0-4.75.97-6.55,3.55-10.91h-24.95c2.69,4.36,3.64,6.16,3.64,10.91v49.25c0,4.73-.96,6.54-3.64,10.9Z"/>
    <path class="cls-1" d="m844.56,657.82h-24.97c2.71,4.36,3.65,6.16,3.65,10.91v49.25c0,4.73-.95,6.54-3.65,10.9h45.21l5-16.69c-11.8,7.01-15.74,5.78-28.8,5.78v-49.25c0-4.75.96-6.55,3.56-10.91Z"/>
    <path class="cls-1" d="m910.62,657.82h-24.95c2.69,4.36,3.64,6.16,3.64,10.91v49.25c0,4.73-.94,6.54-3.64,10.9h24.95c-2.6-4.36-3.57-6.17-3.57-10.9v-49.25c0-4.75.96-6.55,3.57-10.91Z"/>
    <path class="cls-1" d="m958.06,657.82l-25.25,62.23c-2,5.04-3.05,5.69-5.27,8.82h18.81c-4.13-6.26-1.05-11.09,1.73-17.36h23.51c2.5,6.17,5.67,10.82,1.54,17.36h26.11c-2.41-2.65-4.14-4.54-5.77-8.72l-24.19-62.34h-11.22Zm-8,46.46l9.94-26.33,9.61,26.33h-19.55Z"/>
    <path class="cls-1" d="m903.82,781.47H290.17c-2.28,0-4.12,1.71-4.12,3.82s1.84,3.83,4.12,3.83h613.65c2.28,0,4.12-1.71,4.12-3.83s-1.84-3.82-4.12-3.82Z"/>
    <path class="cls-1" d="m851.07,866.82c-5.38-1.12-11.13,1.36-15.64,5.62-8.61,8.15-14.23,24.14-14.97,32.78-.99,12.31,4.75,19.24,9.91,20.34,3.25.68,7.01,0,9.68-1.06,9.5-3.93,19.74-17.89,21.26-36.79.69-7.94-2.42-19.2-10.24-20.89Zm-13.53,51.75c-1.8,2.22-3.23,3.45-4.59,3.2-1.94-.36-3.12-3.5-2.82-6.89,1.23-15.09,7.99-32.16,13.77-39.86,2.31-3.1,4.4-4.46,5.81-4.14,2.23.47,3.02,3.46,2.76,6.71-1.05,12.91-10.22,35.17-14.92,40.98Z"/>
    <path class="cls-1" d="m661.21,902.85c-4.36,6.43-11.15,12.79-12.34,12.81-.69.06.59-6.42.87-7.85,2.9-14.4,12.08-38.62,12.08-38.62,0,0-8.42.87-10.94,1.19-.09.01-4.75,14.1-7.48,21.66-4.61,12.28-10.97,25.18-17.13,23.02-1.2-.42-.84-3.39.23-6.69,1.9-5.84,8.54-25.96,10.53-32.07,2.02-6.11-2.27-7.49-5.02-7.27-5.86.45-11.65,5.22-12.96,9.05-.27.65-.59,1.79-.56,2.44.05.93,1.43.81,2.46-.24,1.12-1.14,3.32-2.38,4.23-2.42.68-.02.94.63.39,2.73-1.91,8.01-8.68,29.44-9.87,36.24-1.59,9.03,4.04,9.36,6.56,9.19,1.76-.12,4.79-1.15,6.96-2.94,1.28-1.06,4.46-3.27,9.43-12.56,1.08-1.87-.61,6.51-.18,11.79.22,2.71,2.53,4.55,4.54,4.52,5.87-.09,17.21-12.83,19.58-20.85.38-1.29.36-2.26.31-3.04-.13-1.05-1.26-.77-1.71-.09Z"/>
    <path class="cls-1" d="m478.18,867.86c-4.23-.32-8.3,1.4-10.76,3.49-6.7,5.7-5.53,14.16-2.76,21.18,2.93,7.07,8.56,14.28,7.12,21.9-.49,2.78-2.15,4.94-4.79,5.89-2.68.77-5.27-.08-7.04-1.85-2.53-2.48,1.56-3.75,2.56-5.53.72-1.32.62-2.57.06-4.02-.68-1.33-1.92-2-3.24-2.37-2.67-.67-5.09.41-6.76,2.72-2.74,3.76-1.35,9.16,1.7,12.58,3.87,3.92,10.01,5.11,15.66,4.06,5.98-.88,9.44-5.63,10.95-10.51,2.97-11.19-4.73-21.95-8.81-32.63-.73-1.92-.96-3.99-.56-5.99.34-1.64,1.09-3.19,2.69-4.23,1.63-.98,3.32-1.01,4.95-.43,4.1,1.19,2.82,4.51,3.09,7.38.11,1.12.76,2.17,1.81,2.73.5.26.89.3,1.64.41,2.01.03,2.63-.54,3.27-1.64,1.46-2.74,1.32-6.03-.6-8.72-2.17-2.99-6.68-4.06-10.19-4.42Z"/>
    <path class="cls-1" d="m751.88,867.34c-6.85.26-11.79,2.87-15.94,9.46l-.46-.86c-.72-1.55.72-2.18,1.05-3.31.33-1.14,0-1.96-.92-2.51-3.01,1.54-7.8.83-11.47,1.17,2.99,4.57,1.48,9.08.73,13.47l-8.51,38.23-.5,2.19s7.81-.11,11.1-.25c2.88-13.33,4.93-21.84,7.93-32.68,1.88-6.78,3.69-15.41,10.8-18.92,1.96-.94,3.4-1.6,4.82-.43.34.28.61.64.79,1.02.38.8.53,1.76.35,2.47-.23,1.71-1.82,2.48-3.16,2.92-.18,1.18.4,2.34.95,3.42.17.33.37.65.61.95.91,1.12,2.32,2.04,3.68,2.16,2.55.13,4.57-.93,6.01-2.63.87-1.03,1.42-2.26,1.74-3.53.62-2.47.67-5.38-1.26-7.83-1.7-2.78-5.31-4.4-8.35-4.53Z"/>
    <path class="cls-1" d="m806.56,868.74c-4.09-4.47-9.02-1.4-10.05-.26-.77.93-1.06,1.99-.91,3.11.13.94.61,1.81,1.28,2.52,2.49,2.69,5.32,5.16,5.83,8.59,1.59,10.9-5.96,20.19-14.3,27.26-4.68,3.84-9.22,7.27-13.56,9.33.02,0,.21-.26.31-.48,10.63-16.14,13.24-32.4,13.85-37.11.34-2.64.78-5.35-.17-8.29-.54-1.66-1.83-3.04-3.5-3.82-.94-.44-1.86-.81-2.9-1.12-4.73-1.28-9.71.16-12.38,2.37-.3.25-.18.72.21.8,1.01.22,1.91-.19,3.36.11,1.73.35,2.92,1.78,2.96,3.21.51,12.95-3.37,24.22-6.64,36.31-1.21,4.34-3.03,8.52-4.03,12.92-.03.13,0,.27.13.35,2.08,1.28,5.89.11,7.87-.66,9.95-3.83,17.82-10.2,24.87-17.63,4.85-5.22,8.52-11.02,10.59-17.22,1.23-3.69,1.68-7.58,1.11-11.41-.47-3.09-1.58-6.3-3.95-8.89Z"/>
    <path class="cls-1" d="m611.74,933.8c-.49.21-5.31,3.74-6.12,4.25-2.43,1.75-4.34,2.74-5.56,3.37-4.19,1.93-7.42,2.5-10.29,2.62-7.33.15-16.64-4.64-19.71-18.62-3.11-14.99,3.13-36.2,10.01-50,9.39-18.74,23.18-32.29,37.2-36.42,9.3-2.73,18.13.81,15.26,9.14-1.27,3.71-2.43,4.12-4.57,6.56-1.62,1.84-4.05,3.22-4.03,6.06-.02.96.39,1.73,1.67,1.62,2.52-.04,10.77-6.67,11.6-7.34,2.92-2.35,4.87-4.87,5.11-7.94.99-12.94-12.16-16.48-20.21-16.31-2.11.09-6.23.48-8.88,1.38-23.71,8.14-39.64,28.35-49.57,51.05-6.21,14.12-9.99,33.18-5.71,50.27,3.92,15.51,16.49,22.81,25.34,21.73,9.66-1.21,21.91-6.18,28.29-16.25.52-.77,1.56-2.52,1.7-3.37.38-2.35-.42-2.27-1.53-1.79Z"/>
    <path class="cls-1" d="m529.36,868.35c-6.01-.99-12.04,1.1-18.08,7.44-6.41,7.16-12.91,21.32-13.4,31.3-.52,10.4,5.22,17.27,9.46,18.16,8.18,1.72,16.34-4.1,21.3-10.51.83-1.07,1.62-3.04,1.71-4.05,0-.44-.31-1.06-.74-1.12-.78-.1-1.72.86-2.82,1.72-4.95,4.37-9.05,5.71-12.14,5.22-2.69-.46-5.4-2.78-5.22-8.33.13-4,.58-4.89.58-4.89.42-.29,16.66-3.86,24.41-18.81,2.95-5.69,2.08-14.95-5.05-16.13Zm-.16,7.86c-.2,5.12-8.31,15.76-18.53,22.44-.06.04.21-1.08.63-2.3,4.04-11.88,11.61-25.01,16.56-24.24,1.07.2,1.5,1.37,1.34,4.09Z"/>
    <path class="cls-1" d="m303.96,594.83l.77-.86-1.19-.23c-11.84-2.26-15.26-7.96-15.26-25.39v-35.42c-.96-22.45-24.69-38.39-40.6-39.48-2.78-.19-6-.25-9.13-.31-3.92-.07-9.21-.17-10.5-.66.77-.59,4.3-1.08,6.47-1.39,1.14-.16,2.28-.31,3.33-.5.47-.08,46.71-8.9,50.41-38,4.38-34.33,3.8-67.95-29.69-81.32-9.59-4.21-24.28-6.18-24.9-6.26l-.31-.05-.25.18c-15.78,11.24-125.2,56.51-126.31,56.98l-.44.17v11.17l24.49-10.29-.11,140.48-13.56,8.96-.38,5.56,1.21-.69c16.66-9.55,49.99-11.35,50.31-11.36l.72-.03s-.63-131.11-.76-158.64l12.72-5.35c.11,29.33.56,155.75-.07,170.85-3.4,3.57-5.81,5.81-11,6.64-4.13.79-8.74,1.55-13.59,2.36-17.07,2.86-36.43,6.1-42.33,11.15-13.75,10.54-29.85,36.88-29.85,36.88,0,0,9.15-1.51,10.89-3.36.98-1.05,9.38-9.8,11.05-11.42,6.63-6.41,33.5-7.26,40.28-7.15,12.62.21,23.78-2.5,23.78-2.5l20.1-29.96.32-71.98h13.85c26.43,0,39.28,7.18,39.28,21.96v58.1c0,19.77.76,21.11,6.34,27.08,2.95,3.04,12.56,9.24,23.86,10.89l.65.11.17-.59c1.79-5.9,10.66-12.21,18.49-17.77,4.41-3.14,8.59-6.11,10.73-8.55Zm-108.69-109.46h-4.67v-87.31l35.03-14.72c23.75,6.84,23.66,26.24,23.35,63.34v.28c-.19,23.09-32.44,38.41-53.71,38.41Z"/>
    <path class="cls-1" d="m327.23,569.19l50.65,20.66,49.53-34.15-6.17-5.8-26.68,15.23-32.55-15.5v-24.79l68.35-35.5-39.99-47.72-68.85,29.32s5.62,8.26,5.62,23.88l.08,74.37Zm34.79-94.61l13.94-7.34,20.25,27.06-34.19,17.79v-37.52Z"/>
    <path class="cls-1" d="m597.55,494.82l.08,74.37,50.65,20.66,49.53-34.15-6.17-5.8-26.68,15.23-32.55-15.5v-24.79l68.35-35.5-39.99-47.72-68.85,29.32s5.62,8.26,5.62,23.88Zm34.87-20.25l13.94-7.34,20.25,27.06-34.19,17.79v-37.52Z"/>
    <path class="cls-1" d="m494.49,589.71l63.18-43.58.06-52.33-60.04,15.78-.02-38.39,15.1-7.22,15.16,16.92,26.18-16.05-2.31-2.58c-6.37-7.13-12.17-14.68-17.33-22.6l-1.86-2.85s-19.44,13.15-33.55,20.16c-26.48,13.04-41.28,16.09-41.28,16.09,0,0,5.67,4.49,5.67,8.45v51.99l57.7-15.06-.03,35.63-10.63,6.92c-1.69-.62-16.97-5.14-22.64-6.8-7.74-2.43-12.44-2.89-17.31-2.89-3.13,0-17.64,1.06-22.28,10.09,0,0,9.49,3.61,21.96,11.21,13.15,7.44,24.26,17.11,24.26,17.11Z"/>
    <path class="cls-1" d="m701.19,868.35c-6.01-.99-12.03,1.1-18.08,7.44-6.41,7.16-12.91,21.32-13.4,31.3-.52,10.4,5.22,17.27,9.46,18.16,8.18,1.72,16.34-4.1,21.3-10.51.83-1.07,1.62-3.04,1.71-4.05,0-.44-.31-1.06-.75-1.12-.78-.1-1.72.86-2.82,1.72-4.95,4.37-9.05,5.71-12.14,5.22-2.69-.46-5.4-2.78-5.22-8.33.13-4,.58-4.89.58-4.89.42-.29,16.66-3.86,24.41-18.81,2.95-5.69,2.08-14.95-5.05-16.13Zm-.16,7.86c-.2,5.12-8.31,15.76-18.53,22.44-.06.04.21-1.08.63-2.3,4.04-11.88,11.61-25.01,16.56-24.24,1.07.2,1.5,1.37,1.34,4.09Z"/>
    <path class="cls-1" d="m433.5,866.82c-5.37-1.12-11.13,1.36-15.64,5.62-8.61,8.15-14.23,24.14-14.97,32.78-.99,12.31,4.75,19.24,9.91,20.34,3.25.68,7.01,0,9.68-1.06,9.5-3.93,19.74-17.89,21.27-36.79.69-7.94-2.43-19.2-10.24-20.89Zm-13.53,51.75c-1.79,2.22-3.23,3.45-4.59,3.2-1.94-.36-3.12-3.5-2.82-6.89,1.23-15.09,7.99-32.16,13.77-39.86,2.31-3.1,4.4-4.46,5.81-4.14,2.23.47,3.02,3.46,2.76,6.71-1.05,12.91-10.22,35.17-14.92,40.98Z"/>
    <path class="cls-1" d="m428.97,834.76c3.25-.7,2.85-2.55.31-2.73-4.15-.6-13.02-.48-17.14-.17-17.99,1.57-34.69,5.27-48.64,13.86-6.23,3.83-15.78,10.33-21.4,18.79-1.7,2.6-2.83,5.02-3.52,7.3-1.46,5.16-.18,9.73,2.82,13.87,1.6,2.01,4.12,3.5,6.67,4.12,12.17,2.33,17.56-3.69,20.57-6.86.76-.81,1.42-1.7,1.84-2.7,1.04-2.48-1.17-2.12-2.33-1.02-.88.75-4.35,3.32-9.12,4.21-2.65.49-5.39-.18-7.41-1.85-2.02-1.67-3.07-4.13-2.83-6.62.1-1.01.33-2.14.72-3.4,1.3-4.7,5.18-10.01,9.81-13.96,17.65-14.8,39.16-19.05,43.54-19.83,2.78-.5,6.52-.71,6.52-.71-14.52,10.12-21.35,22.8-25.72,31.38-3.5,7.47-6.7,14.96-9.24,22.62-6,16.21-10.69,40.01-17.18,48.47-7.19,9.34-14.81,12.57-22.74,10.76-6.97-1.59-14.61-8.43-11.38-18.34,5.02-13.86,16.85-14.49,19.26-14.47.33,0,.61-.3.5-.59-.51-1.33-5.51-2.03-10.17-1.37-9.3,1.61-17.73,7.55-20.17,16.12-2.15,8.51,1.61,14.66,7.57,19.29,8.21,5.9,24.63,9.79,39.31-1.58,6.67-5.28,11.11-12.07,14.21-19.27,2.59-6.28,10.15-26.4,12.43-33.93,5.11-16.6,10.85-32.77,21.41-48.13,6.18-9.39,16.36-12.12,21.5-13.25Z"/>
  </g>
  <path class="cls-1" d="m1038.09,728.51c-7.1,0-12.85-5.34-12.85-11.93s5.75-11.93,12.85-11.93,12.85,5.34,12.85,11.93-5.75,11.93-12.85,11.93Zm0-22.12c-5.96,0-10.79,4.58-10.79,10.18s4.83,10.19,10.79,10.19,10.83-4.58,10.83-10.19-4.86-10.18-10.83-10.18Zm3.12,16.71l-3.23-5.34h-2.13v5.34h-1.95v-13.08h4.79c2.45,0,4.44,1.71,4.44,3.92,0,1.91-1.28,3.1-3.02,3.59l3.37,5.57h-2.27Zm-2.73-11.47h-2.63v4.58h2.63c1.56,0,2.66-.96,2.66-2.27s-1.1-2.31-2.66-2.31Z"/>
  <path class="cls-1" d="m901.15,925.5c-7.1,0-12.85-5.34-12.85-11.93s5.75-11.93,12.85-11.93,12.85,5.34,12.85,11.93-5.75,11.93-12.85,11.93Zm0-22.12c-5.96,0-10.79,4.58-10.79,10.18s4.83,10.19,10.79,10.19,10.83-4.58,10.83-10.19-4.86-10.18-10.83-10.18Zm3.12,16.71l-3.23-5.34h-2.13v5.34h-1.95v-13.08h4.79c2.45,0,4.44,1.71,4.44,3.92,0,1.91-1.28,3.1-3.02,3.59l3.37,5.57h-2.27Zm-2.73-11.47h-2.63v4.58h2.63c1.56,0,2.66-.96,2.66-2.27s-1.1-2.31-2.66-2.31Z"/>
</svg>