<?xml version="1.0" encoding="UTF-8"?><svg id="Capa_1" xmlns="http://www.w3.org/2000/svg" xmlns:xlink="http://www.w3.org/1999/xlink" viewBox="0 0 257 97"><defs><style>.cls-1{fill:#fff;}.cls-2{fill:#020a0a;}.cls-3{fill:url(#linear-gradient);}</style><linearGradient id="linear-gradient" x1="-15.5" y1="48.35" x2="273.42" y2="48.35" gradientUnits="userSpaceOnUse"><stop offset="0" stop-color="#d3a460"/><stop offset=".29" stop-color="#d3a460"/><stop offset=".41" stop-color="#eec995"/><stop offset=".63" stop-color="#c79243"/><stop offset=".74" stop-color="#c08d40"/><stop offset=".95" stop-color="#9b7631"/><stop offset="1" stop-color="#9b7631"/></linearGradient></defs><polygon class="cls-2" points="13.46 -.18 -.02 15.42 -.02 80.88 13.46 97.18 243.19 97.18 256.98 80.88 256.98 16.12 243.19 -.18 13.46 -.18"/><path class="cls-3" d="m240.11,85.81H16.88L-.09,73.57l15.04,16.91h227.09l15.04-16.91-16.97,12.24ZM14.95,6.23L.43,22.44l16.46-11.54h223.23l16.97,12.25-15.04-16.91H14.95Z"/><path class="cls-1" d="m224.78,66.77c.46,0,.98.1,1.55.29,5.42,1.73,10.3.92,13.39-2.2,2.06-2.07,3.22-5.01,3.17-8.07-.04-3.17-1.32-6.18-3.6-8.48-1.35-1.38-3.08-2.61-4.76-3.8-1.63-1.15-3.16-2.24-4.3-3.41h0c-1.53-1.6-2.06-3.59-1.37-5.2.62-1.45,2.13-2.31,4.03-2.31,2.09,0,4.97.87,6.87,5,.14-.04.56-.18.69-.22v-9.05l-.73-.29c-.59,1.14-1.94,1.14-3.02.75-.09-.03-.19-.07-.28-.1-1.03-.37-2.43-.87-4.59-.87-5.38,0-9.82,4.41-9.89,9.83-.03,2.83,1.12,5.65,3.16,7.74,1.33,1.35,3.02,2.55,4.65,3.71,1.52,1.08,2.96,2.1,4.1,3.22,3.28,3.24,2.86,6.61.99,8.51-.84.86-2.94,1.5-5.31,1.05-1.72-.32-4.87-1.51-6.75-5.84l-.73.34v10.12c.13.05.6.23.74.28.47-.65,1.13-.98,1.99-.98m-146.49-.03c.46,0,.98.1,1.55.29,5.41,1.75,10.3.96,13.4-2.15,2.06-2.06,3.23-5,3.19-8.07-.04-3.17-1.31-6.19-3.58-8.5h0c-1.34-1.38-3.07-2.61-4.74-3.8-1.63-1.16-3.16-2.25-4.3-3.44-1.53-1.61-2.05-3.6-1.36-5.21.62-1.44,2.13-2.3,4.03-2.3h.02c2.09,0,4.96.88,6.85,5.02.14-.04.56-.17.69-.22l.03-9.05-.73-.29c-.6,1.14-1.95,1.14-3.02.75-.1-.03-.19-.07-.29-.11-1.02-.37-2.43-.88-4.57-.88-5.38,0-9.83,4.4-9.92,9.8-.04,2.84,1.1,5.66,3.14,7.75,1.32,1.35,3.01,2.56,4.65,3.72,1.52,1.08,2.96,2.11,4.08,3.22,3.27,3.26,2.84,6.63.97,8.53-.85.85-2.95,1.48-5.32,1.03-1.72-.33-4.87-1.53-6.73-5.86l-.72.34-.03,10.13c.13.05.6.23.74.28.47-.65,1.14-.98,1.99-.98M44.81,30.03c1.59.59,1.85,1.6,1.86,3.76l-.07,23.07c-.01,3.42.85,6.09,2.57,7.94,1.83,1.99,4.83,3.04,8.68,3.05h.07c3.56,0,6.29-.95,8.34-2.9,1.97-1.89,2.97-4.57,2.98-7.97l.05-23.13c0-2.16.26-3.17,1.87-3.76l-.29-.71-9.76-.02-.28.71c1.58.58,1.83,1.59,1.83,3.76l-.06,23.49c0,1.99-.49,3.48-1.45,4.43-.98.98-2.26,1.18-3.17,1.18,0,0-.02,0-.03,0-1.46,0-2.56-.39-3.35-1.18-.92-.92-1.38-2.38-1.37-4.35l.06-23.59c0-2.16.26-3.17,1.85-3.76l-.27-.71-9.76-.03-.3.71Zm156.83,37.18h14.34c1.02,0,1.62.06,1.78.08l2.67-6.33-.63-.62c-1.33,1.63-3.37,2.23-4.43,2.23h-5.53v-28.66c0-2.17.27-3.18,1.86-3.76l-.28-.71h-9.77l-.29.71c1.59.58,1.85,1.59,1.86,3.76v28.81c0,2.11-.17,2.99-1.87,3.77.19.46.26.64.3.72m-20.16,0h14.67c1.02,0,1.63.06,1.79.08l2.66-6.33-.63-.62c-1.33,1.63-3.37,2.23-4.43,2.23h-5.88v-28.66c0-2.16.26-3.18,1.86-3.76l-.28-.71h-9.76l-.29.71c1.59.58,1.85,1.6,1.85,3.76v28.81c0,2.11-.17,2.99-1.86,3.77.19.46.26.64.3.72m-65.04.05l9.73.02c.12-.29.25-.59.3-.71-1.61-.61-1.87-1.63-1.86-3.78l.02-28.86c0-2.16.27-3.17,1.86-3.76l-.27-.71-9.7-.03-.29.71c1.58.58,1.83,1.59,1.84,3.76l-.03,11.49h-.06s-8.56-.02-8.56-.02v-.06l.03-11.39c.02-2.17.29-3.18,1.87-3.76l-.29-.72-9.85-.03-.28.72c1.59.6,1.85,1.61,1.84,3.76v28.86c0,2.16-.26,3.17-1.88,3.78.05.13.19.48.25.62.02.04.03.07.04.09l9.76.03c.03-.08.11-.26.3-.72-1.69-.78-1.85-1.66-1.86-3.78l.04-12.63h.06s8.57.02,8.57.02v12.59c-.02,2.11-.18,2.99-1.88,3.76.19.46.26.65.29.73m49-.05h9.77c.06-.13.24-.56.29-.71-1.61-.61-1.88-1.62-1.87-3.78v-28.81c0-2.16.26-3.17,1.86-3.76l-.28-.71h-9.77l-.28.71c1.58.58,1.84,1.59,1.85,3.76v28.81c-.01,2.11-.18,2.99-1.87,3.77.19.46.26.64.29.72m-15.95,0h9.65s0-.02.01-.03c.15-.36.24-.59.28-.68-1.62-.61-1.88-1.62-1.87-3.78v-28.81c0-2.16.26-3.18,1.85-3.76l-.28-.71h-8.38l-.29.72c.31.14.52.37.65.68.35.85-.06,2.14-.46,3.08l-4.54,11.67.04.1h-.23l.05-.11-4.67-11.81c-.37-.99-1.15-3.03.18-3.61l-.29-.72h-8.9l-.29.71c1.6.58,1.87,1.6,1.87,3.76v28.81c0,2.11-.17,3-1.88,3.77.19.46.27.64.3.72h9.35c.05-.13.23-.56.29-.71-1.6-.61-1.86-1.62-1.86-3.78v-7.31c0-3.7,0-8.29-.14-10.92l-.02-.45.15.43c.25.73,1.65,4.33,3,7.81,1.05,2.71,2.05,5.28,2.48,6.42.05.13.11.2.17.2h0c.07,0,.15-.08.19-.2,1.38-3.73,5.13-14.11,5.17-14.22l.16-.43-.03.45c-.17,2.32-.15,6.28-.14,9.77,0,.89,0,1.74,0,2.53v5.91c0,2.11-.17,2.99-1.87,3.77.19.46.26.64.29.72m-136.75-.76c.07.18.24.62.29.76h13.42c5.6-.02,8.94-1.1,11.51-3.72,2.23-2.25,3.89-7.25,2.82-11.72-.61-2.57-2.37-5.97-7.24-7.59l-.14-.05.12-.07c2.85-1.61,4.67-4.24,5.14-7.38.46-3.12-.51-6.46-2.46-8.51-2.21-2.33-5.45-3.38-10.49-3.38h-12.65l-.33.7c1.43.98,1.88,1.65,1.88,3.81,0,.76.02,33.1.02,33.42,0,2.12-.39,2.9-1.9,3.73m12.32-4.28h-3.52v-.06c-.01-5.19-.01-9.63,0-14.83v-.06h3.52c3.11,0,5.07.64,6.54,2.15h0c2.67,2.74,2.67,7.92,0,10.67-1.46,1.5-3.42,2.14-6.54,2.14m-.71-19.65h-2.75v-.06c-.02-4.38-.02-8.11,0-12.47v-.06s.06,0,.06,0c.76-.02,2.65-.02,3.15,0,.04,0,.07,0,.11,0,2.54,0,4.14.57,5.34,1.89,2.02,2.12,1.82,6.57-.4,8.82-1.25,1.31-2.95,1.89-5.51,1.89"/><path class="cls-1" d="m247.65,34.77h0c-1.2,0-2.18-.94-2.18-2.34s.98-2.33,2.18-2.33,2.17.93,2.17,2.33-.99,2.34-2.17,2.34m0-5.37c-1.61,0-3.05,1.11-3.05,3.04s1.44,3.03,3.05,3.03,3.04-1.12,3.04-3.03-1.44-3.04-3.04-3.04m.11,2.73h-.61v-.78h.49c.27,0,.63.02.63.36,0,.36-.19.42-.5.42m1.25-.35c0-.75-.5-.99-1.34-.99h-1.22v3.27h.7v-1.37h.33l.75,1.37h.83l-.84-1.43c.43-.03.79-.25.79-.85"/></svg>