<?xml version="1.0" encoding="UTF-8"?><svg id="Capa_1" xmlns="http://www.w3.org/2000/svg" viewBox="0 0 422 160"><defs><style>.cls-1{fill:#fff;}.cls-2{fill:#1d1d1b;}</style></defs><polygon class="cls-1" points="21.94 0 -.22 25.63 -.22 133.21 21.94 160 399.49 160 422.15 133.21 422.15 26.79 399.49 0 21.94 0"/><path class="cls-2" d="m394.44,141.32H27.56L-.33,121.2l24.72,27.79h373.24l24.71-27.79-27.89,20.12ZM24.38,10.53L.51,37.17l27.04-18.97h366.88l27.89,20.13-24.71-27.79H24.38Zm344.85,99.5c.76,0,1.61.16,2.54.47,8.91,2.84,16.93,1.52,22-3.62,3.38-3.4,5.28-8.24,5.21-13.27-.07-5.21-2.17-10.16-5.92-13.94-2.22-2.27-5.07-4.29-7.83-6.24-2.67-1.89-5.2-3.67-7.07-5.61h0c-2.52-2.63-3.39-5.9-2.26-8.55,1.01-2.38,3.49-3.79,6.63-3.79,3.43,0,8.17,1.43,11.29,8.22.24-.07.92-.29,1.14-.36v-14.87l-1.2-.48c-.97,1.87-3.2,1.87-4.97,1.24-.15-.05-.3-.11-.46-.16-1.69-.61-4-1.44-7.54-1.44-8.84,0-16.13,7.25-16.25,16.15-.05,4.65,1.84,9.29,5.19,12.72,2.19,2.22,4.96,4.19,7.65,6.09,2.5,1.78,4.87,3.46,6.73,5.28,5.39,5.32,4.7,10.86,1.63,13.99-1.38,1.41-4.82,2.46-8.73,1.72-2.83-.53-8.01-2.48-11.09-9.6l-1.2.56v16.64c.21.09.98.39,1.21.47.77-1.07,1.86-1.61,3.27-1.61m-240.75-.04c.76,0,1.61.16,2.54.47,8.89,2.87,16.92,1.58,22.02-3.54,3.39-3.39,5.3-8.23,5.25-13.26-.06-5.22-2.15-10.17-5.88-13.96h0c-2.21-2.27-5.05-4.29-7.79-6.25-2.67-1.9-5.2-3.7-7.07-5.65-2.51-2.64-3.37-5.92-2.23-8.56,1.02-2.37,3.49-3.78,6.62-3.78h.03c3.43,0,8.16,1.45,11.26,8.26.23-.07.92-.29,1.14-.36l.05-14.88-1.2-.48c-.98,1.87-3.2,1.87-4.97,1.23-.16-.06-.32-.11-.48-.18-1.68-.61-3.99-1.45-7.51-1.45-8.84,0-16.15,7.23-16.3,16.11-.07,4.66,1.81,9.31,5.16,12.74,2.18,2.22,4.95,4.2,7.63,6.11,2.5,1.78,4.86,3.46,6.71,5.29,5.37,5.35,4.67,10.89,1.59,14.01-1.39,1.41-4.85,2.44-8.75,1.69-2.82-.54-8-2.51-11.06-9.63l-1.19.55-.06,16.65c.21.09.98.38,1.21.47.77-1.07,1.87-1.61,3.27-1.61m-55.02-60.35c2.61.96,3.04,2.63,3.05,6.19l-.12,37.91c-.02,5.62,1.4,10.01,4.22,13.05,3.01,3.27,7.94,5,14.26,5.02h.12c5.86,0,10.34-1.56,13.71-4.77,3.24-3.1,4.89-7.51,4.9-13.1l.08-38.01c0-3.55.43-5.21,3.07-6.18l-.47-1.17-16.03-.04-.46,1.17c2.59.95,3.01,2.62,3.01,6.18l-.1,38.61c0,3.26-.81,5.71-2.38,7.28-1.61,1.6-3.71,1.94-5.2,1.94-.02,0-.03,0-.05,0-2.41,0-4.21-.64-5.51-1.94-1.51-1.51-2.27-3.92-2.26-7.15l.11-38.77c0-3.55.43-5.21,3.05-6.18l-.44-1.17-16.04-.05-.49,1.17Zm257.76,61.11h23.57c1.67,0,2.66.1,2.93.13l4.38-10.4-1.04-1.02c-2.19,2.68-5.55,3.66-7.28,3.66h-9.1v-47.1c.01-3.56.44-5.22,3.06-6.18l-.46-1.17h-16.05l-.47,1.17c2.61.96,3.04,2.62,3.05,6.18v47.35c-.02,3.47-.29,4.92-3.08,6.2.31.75.43,1.06.48,1.19m-33.13,0h24.11c1.68,0,2.67.1,2.95.13l4.37-10.4-1.04-1.02c-2.18,2.68-5.53,3.66-7.27,3.66h-9.66v-47.1c0-3.56.43-5.22,3.06-6.18l-.47-1.17h-16.05l-.47,1.17c2.61.96,3.04,2.62,3.04,6.18v47.35c0,3.47-.27,4.92-3.06,6.2.31.75.43,1.06.49,1.19m-106.89.09l15.99.04c.2-.47.41-.97.49-1.17-2.64-1.01-3.07-2.67-3.05-6.22l.04-47.42c.01-3.55.44-5.21,3.07-6.18l-.45-1.17-15.94-.05-.48,1.17c2.59.95,3.02,2.62,3.02,6.19l-.05,18.89h-.1s-14.06-.04-14.06-.04v-.1l.05-18.71c.03-3.56.47-5.23,3.07-6.17l-.47-1.18-16.19-.04-.46,1.18c2.61.98,3.03,2.64,3.03,6.19v47.43c0,3.55-.43,5.21-3.08,6.21.08.22.32.78.42,1.02.03.06.05.11.06.14l16.05.05c.05-.13.18-.43.5-1.19-2.77-1.28-3.04-2.73-3.05-6.21l.06-20.76h.1s14.08.04,14.08.04v20.7c-.03,3.47-.3,4.92-3.08,6.18.31.76.43,1.07.48,1.2m80.53-.09h16.06c.09-.21.39-.92.48-1.17-2.65-1.01-3.08-2.67-3.08-6.22v-47.35c0-3.55.43-5.22,3.06-6.18l-.46-1.17h-16.05l-.47,1.17c2.6.96,3.03,2.62,3.05,6.18v47.35c-.02,3.47-.29,4.92-3.07,6.2.31.75.43,1.06.48,1.19m-26.22,0h15.86s.01-.03.02-.04c.25-.59.4-.97.46-1.13-2.66-1-3.09-2.67-3.07-6.22v-47.35c0-3.56.43-5.22,3.05-6.18l-.46-1.17h-13.78l-.48,1.18c.5.23.86.61,1.07,1.12.57,1.4-.1,3.52-.76,5.06l-7.46,19.18.07.17h-.38l.08-.17-7.68-19.41c-.62-1.62-1.89-4.97.3-5.94l-.47-1.18h-14.63l-.47,1.17c2.63.96,3.07,2.62,3.08,6.18v47.35c-.01,3.47-.28,4.92-3.09,6.2.31.75.44,1.06.49,1.19h15.37c.09-.21.39-.92.48-1.17-2.63-1-3.06-2.67-3.06-6.21v-12.01c0-6.07.01-13.63-.22-17.95l-.04-.74.24.7c.42,1.21,2.71,7.12,4.93,12.84,1.73,4.46,3.36,8.67,4.07,10.56.08.21.18.33.28.33h0c.11,0,.24-.14.31-.33,2.26-6.13,8.44-23.19,8.5-23.36l.26-.7-.05.75c-.27,3.81-.25,10.32-.23,16.06,0,1.46.01,2.87.01,4.16v9.72c0,3.46-.28,4.91-3.07,6.2.3.75.43,1.06.48,1.19m-224.75-1.24c.12.29.39,1.01.48,1.24h22.05c9.21-.04,14.69-1.81,18.92-6.12,3.66-3.7,6.39-11.91,4.64-19.26-1.01-4.22-3.89-9.81-11.9-12.48l-.22-.07.2-.11c4.68-2.65,7.68-6.96,8.44-12.14.76-5.12-.83-10.61-4.05-13.98-3.64-3.84-8.96-5.55-17.25-5.55h-20.79l-.54,1.16c2.36,1.61,3.1,2.7,3.1,6.26,0,1.25.04,54.39.04,54.93,0,3.49-.65,4.77-3.12,6.12m20.25-7.04h-5.78v-.1c-.02-8.54-.02-15.83,0-24.38v-.1h5.78c5.12,0,8.33,1.05,10.76,3.53h0c4.39,4.5,4.39,13.02,0,17.53-2.41,2.47-5.62,3.52-10.76,3.52m-1.17-32.3h-4.52v-.1c-.03-7.2-.03-13.33,0-20.5v-.1s.1,0,.1,0c1.25-.03,4.35-.03,5.17,0,.06,0,.12,0,.18,0,4.17,0,6.8.93,8.77,3.1,3.31,3.48,2.99,10.8-.65,14.5-2.06,2.15-4.85,3.11-9.05,3.11m366.99-12.74h0c-1.97,0-3.58-1.54-3.58-3.84s1.6-3.83,3.58-3.83,3.57,1.53,3.57,3.83-1.63,3.84-3.57,3.84m0-8.83c-2.65,0-5.02,1.83-5.02,4.99s2.36,4.99,5.02,4.99,5-1.83,5-4.99-2.36-4.99-5-4.99m.19,4.49h-1.01v-1.29h.8c.44,0,1.03.04,1.03.6,0,.59-.31.69-.82.69m2.05-.57c0-1.23-.82-1.62-2.21-1.62h-2v5.37h1.15v-2.26h.54l1.23,2.26h1.37l-1.38-2.35c.71-.05,1.3-.41,1.3-1.39"/></svg>