<?xml version="1.0" encoding="UTF-8"?><svg id="Capa_1" xmlns="http://www.w3.org/2000/svg" xmlns:xlink="http://www.w3.org/1999/xlink" viewBox="0 0 256 256"><defs><style>.cls-1{fill:#dcb53d;}.cls-2{clip-path:url(#clippath);}.cls-3{fill:none;}</style><clipPath id="clippath"><rect class="cls-3" x="2" y="2" width="252" height="252"/></clipPath></defs><g class="cls-2"><path class="cls-1" d="m143.43,183.01v-6.72c5.6,0,10.1-5.52,10.1-10.09v-30.26c0-7.67-18.37-13.45-30.28-13.45s-30.25,5.78-30.25,13.45v30.26c0,4.57,4.5,10.09,10.1,10.09v6.72c-8.8,0-16.83-8.01-16.83-16.81v-30.26c0-14.08,24.51-20.17,36.98-20.17s36.98,6.09,36.98,20.17v30.26c0,8.8-8,16.81-16.8,16.81"/><path class="cls-1" d="m183.78,189.73v-6.72c4.18,0,10.08-2.09,10.08-6.73v-30.26c0-7.67-16.31-13.45-26.9-13.45-.93,0-1.96.05-3.03.15l-.64-6.7c1.3-.12,2.54-.18,3.67-.18,11.37,0,33.63,6.09,33.63,20.17v30.26c0,8.73-8.66,13.45-16.8,13.45"/><path class="cls-1" d="m123.25,112.41c-9.73,0-16.8-6.5-16.8-15.46v-6.05c0-8.96,7.07-15.46,16.8-15.46s16.83,6.5,16.83,15.46v6.05c0,8.96-7.07,15.46-16.83,15.46m0-30.26c-6.02,0-10.08,3.51-10.08,8.74v6.05c0,5.23,4.06,8.74,10.08,8.74s10.1-3.51,10.1-8.74v-6.05c0-5.23-4.06-8.74-10.1-8.74"/><rect class="cls-1" x="180.41" y="152.75" width="6.72" height="47.07"/><rect class="cls-1" x="140.08" y="142.67" width="6.72" height="57.15"/><rect class="cls-1" x="99.73" y="142.67" width="6.72" height="57.15"/><path class="cls-1" d="m170.33,122.5c-9.73,0-16.8-6.5-16.8-15.46v-6.05c0-8.96,7.07-15.46,16.8-15.46s16.8,6.5,16.8,15.46v6.05c0,8.96-7.07,15.46-16.8,15.46m0-30.26c-6.04,0-10.1,3.51-10.1,8.74v6.05c0,5.23,4.06,8.74,10.1,8.74s10.08-3.51,10.08-8.74v-6.05c0-5.23-4.06-8.74-10.08-8.74"/><path class="cls-1" d="m62.75,189.73c-8.14,0-16.8-4.72-16.8-13.45v-30.26c0-14.08,22.26-20.17,33.6-20.17,1.15,0,2.37.06,3.67.18l-.61,6.7c-1.08-.1-2.1-.15-3.06-.15-10.56,0-26.88,5.77-26.88,13.45v30.26c0,4.64,5.89,6.73,10.08,6.73v6.72Z"/><rect class="cls-1" x="59.4" y="152.75" width="6.72" height="47.07"/><path class="cls-1" d="m76.2,122.5c-9.73,0-16.8-6.5-16.8-15.46v-6.05c0-8.96,7.07-15.46,16.8-15.46s16.8,6.5,16.8,15.46v6.05c0,8.96-7.07,15.46-16.8,15.46m0-30.26c-6.04,0-10.1,3.51-10.1,8.74v6.05c0,5.23,4.06,8.74,10.1,8.74s10.08-3.51,10.08-8.74v-6.05c0-5.23-4.06-8.74-10.08-8.74"/><path class="cls-1" d="m93,82.15c-9.73,0-16.8-6.5-16.8-15.46v-6.05c0-8.96,7.07-15.46,16.8-15.46s16.8,6.5,16.8,15.46v6.05c0,8.96-7.07,15.46-16.8,15.46m0-30.26c-6.02,0-10.08,3.51-10.08,8.74v6.05c0,5.23,4.06,8.74,10.08,8.74s10.1-3.51,10.1-8.74v-6.05c0-5.23-4.06-8.74-10.1-8.74"/><path class="cls-1" d="m153.53,82.15c-9.76,0-16.83-6.5-16.83-15.46v-6.05c0-8.96,7.07-15.46,16.83-15.46s16.8,6.5,16.8,15.46v6.05c0,8.96-7.07,15.46-16.8,15.46m0-30.26c-6.04,0-10.1,3.51-10.1,8.74v6.05c0,5.23,4.06,8.74,10.1,8.74s10.08-3.51,10.08-8.74v-6.05c0-5.23-4.06-8.74-10.08-8.74"/><path class="cls-1" d="m128,254C58.52,254,2,197.48,2,128S58.52,2,128,2s126,56.52,126,126-56.52,126-126,126m0-249.55C59.89,4.45,4.44,59.87,4.44,128s55.44,123.55,123.55,123.55,123.55-55.43,123.55-123.55S196.13,4.45,128,4.45"/></g></svg>